<?xml version="1.0" encoding="UTF-8"?>
<svg id="Capa_2" data-name="Capa 2" xmlns="http://www.w3.org/2000/svg" viewBox="0 0 218.65 93.57">
  <defs>
    <style>
      .cls-1 {
        fill: #bee3ed;
      }

      .cls-2 {
        fill: #74bfcf;
      }

      .cls-3 {
        fill: #83ccdc;
      }

      .cls-4 {
        fill: #f1f8f6;
      }

      .cls-5 {
        fill: #a2d9ed;
      }

      .cls-6 {
        fill: #86cbd4;
      }

      .cls-7 {
        fill: #def0f3;
      }

      .cls-8 {
        fill: #8ac0cd;
      }

      .cls-9 {
        fill: #a2d8e9;
      }

      .cls-10 {
        fill: #cce9f0;
      }

      .cls-11 {
        fill: #79c6d5;
      }

      .cls-12 {
        fill: #eaf6f8;
      }

      .cls-13 {
        font-family: Bauhaus93, 'Bauhaus 93';
        font-size: 71.28px;
      }

      .cls-14 {
        fill: #75bfd2;
      }

      .cls-15 {
        fill: #7cc4da;
      }

      .cls-16 {
        fill: #fafdfc;
      }

      .cls-17 {
        fill: #f4fafb;
      }

      .cls-18 {
        fill: #fff;
      }

      .cls-19 {
        fill: #a4d9e6;
      }

      .cls-20 {
        fill: #84ccdc;
      }

      .cls-21 {
        fill: #78c0d3;
      }

      .cls-22 {
        fill: #fcfdfd;
      }

      .cls-23 {
        fill: #fdfdfb;
      }

      .cls-24 {
        fill: #d5ecf0;
      }

      .cls-25 {
        fill: #84bdd6;
      }

      .cls-26 {
        fill: #c0e3ea;
      }

      .cls-27 {
        fill: #b4dee7;
      }

      .cls-28 {
        fill: #87cae0;
      }

      .cls-29 {
        fill: #87c9db;
      }

      .cls-30 {
        fill: #87c8da;
      }

      .cls-31 {
        fill: #fdfefd;
      }

      .cls-32 {
        fill: #96d2de;
      }

      .cls-33 {
        fill: #7bbdd3;
      }

      .cls-34 {
        fill: #ebf6f9;
      }

      .cls-35 {
        fill: #f3f9fa;
      }

      .cls-36 {
        fill: #78bace;
      }

      .cls-37 {
        fill: #c4e4e9;
      }

      .cls-38 {
        fill: #f3fafc;
      }

      .cls-39 {
        fill: #a5d9e4;
      }

      .cls-40 {
        fill: #d4ebf0;
      }

      .cls-41 {
        fill: #75bfcc;
      }

      .cls-42 {
        fill: #87ccdf;
      }

      .cls-43 {
        fill: #85cbde;
      }

      .cls-44 {
        fill: #8dc7d2;
      }

      .cls-45 {
        fill: #a4d8e5;
      }

      .cls-46 {
        fill: #f7fbfd;
      }

      .cls-47 {
        fill: #84cbde;
      }

      .cls-48 {
        fill: #a4d8e3;
      }

      .cls-49 {
        fill: #8dc9d8;
      }

      .cls-50 {
        fill: #77c2d2;
      }

      .cls-51 {
        fill: #ecf6f8;
      }

      .cls-52 {
        fill: #a1d8e8;
      }

      .cls-53 {
        fill: #d0e6e7;
      }

      .cls-54 {
        fill: #a3d9ef;
      }

      .cls-55 {
        fill: #fbfcfa;
      }

      .cls-56 {
        fill: #eff7f8;
      }

      .cls-57 {
        fill: #89c8de;
      }

      .cls-58 {
        fill: #bde2e9;
      }

      .cls-59 {
        fill: #abdade;
      }

      .cls-60 {
        fill: #c5e5ec;
      }

      .cls-61 {
        fill: #84ccdb;
      }

      .cls-62 {
        fill: #76bed5;
      }

      .cls-63 {
        fill: #78bdd5;
      }

      .cls-64 {
        fill: #b5dfeb;
      }

      .cls-65 {
        fill: #84cadc;
      }

      .cls-66 {
        fill: #aedce7;
      }

      .cls-67 {
        fill: #74bbcc;
      }

      .cls-68 {
        fill: #a3d9ea;
      }

      .cls-69 {
        letter-spacing: .08em;
      }

      .cls-69, .cls-70 {
        fill: #00b4d5;
      }

      .cls-71 {
        fill: #fbfdfc;
      }

      .cls-72 {
        fill: #fdfefc;
      }

      .cls-73 {
        fill: #f8fbfa;
      }

      .cls-74 {
        fill: #bbddd7;
      }

      .cls-75 {
        fill: #78bbce;
      }

      .cls-76 {
        fill: #b3deec;
      }

      .cls-77 {
        fill: #f6fbfd;
      }

      .cls-78 {
        fill: #e0f1f8;
      }

      .cls-79 {
        fill: #7bbdd1;
      }

      .cls-80 {
        fill: #f7fbfe;
      }

      .cls-81 {
        fill: #fefdf7;
      }

      .cls-82 {
        fill: #97d3e1;
      }

      .cls-83 {
        fill: #a1d8e9;
      }

      .cls-84 {
        fill: #abdbe3;
      }

      .cls-85 {
        fill: #f8fcfb;
      }

      .cls-86 {
        fill: #fafdfd;
      }

      .cls-87 {
        fill: #87cedc;
      }

      .cls-88 {
        fill: #9fd6e0;
      }

      .cls-89 {
        fill: #a4d8e6;
      }

      .cls-70 {
        font-family: Corbel-Bold, Corbel;
        font-size: 15px;
        font-weight: 700;
      }

      .cls-90 {
        fill: #f9fcfa;
      }

      .cls-91 {
        fill: #f3fafb;
      }

      .cls-92 {
        fill: #b4dee9;
      }

      .cls-93 {
        fill: #b1dde7;
      }

      .cls-94 {
        fill: #bee3ec;
      }

      .cls-95 {
        fill: #8bcbe0;
      }

      .cls-96 {
        fill: #a2d7e3;
      }

      .cls-97 {
        fill: #76b8cb;
      }

      .cls-98 {
        fill: #77c0d4;
      }

      .cls-99 {
        fill: #8bbcd0;
      }

      .cls-100 {
        fill: #f7fbfb;
      }

      .cls-101 {
        fill: #8fd0dc;
      }

      .cls-102 {
        fill: #a1d7e5;
      }

      .cls-103 {
        fill: #8ac7de;
      }

      .cls-104 {
        fill: #a2d9eb;
      }

      .cls-105 {
        fill: #fcfefe;
      }

      .cls-106 {
        fill: #90d1df;
      }

      .cls-107 {
        fill: #a2d8e5;
      }

      .cls-108 {
        fill: #eff8fa;
      }

      .cls-109 {
        fill: #7dbeca;
      }

      .cls-110 {
        fill: #8dc4d2;
      }

      .cls-111 {
        fill: #f5fbfd;
      }

      .cls-112 {
        fill: #f7fcfd;
      }

      .cls-113 {
        fill: #99d5e4;
      }

      .cls-114 {
        fill: #a1d7e4;
      }

      .cls-115 {
        fill: #84cddc;
      }

      .cls-116 {
        fill: #eef7fa;
      }

      .cls-117 {
        fill: #a3d9eb;
      }

      .cls-118 {
        fill: #a3d8e7;
      }

      .cls-119 {
        fill: #78bed4;
      }

      .cls-120 {
        fill: #bbe1e4;
        letter-spacing: .08em;
      }

      .cls-121 {
        fill: #a2d9ec;
      }

      .cls-122 {
        fill: #87c9df;
      }

      .cls-123 {
        fill: #e1f2f8;
      }

      .cls-124 {
        fill: #eff8fb;
      }

      .cls-125 {
        fill: #85cddb;
      }

      .cls-126 {
        fill: #f0f8fa;
      }

      .cls-127 {
        fill: #c1e4ec;
      }

      .cls-128 {
        fill: #f9fcfc;
      }

      .cls-129 {
        fill: #fcfdfc;
      }

      .cls-130 {
        fill: #a6d9e4;
      }

      .cls-131 {
        fill: #89bfd2;
      }

      .cls-132 {
        fill: #fbfdfd;
      }

      .cls-133 {
        fill: #a5d9e5;
      }

      .cls-134 {
        fill: #8dcdd7;
      }

      .cls-135 {
        fill: #b4dfed;
      }

      .cls-136 {
        fill: #a9d9dd;
      }

      .cls-137 {
        fill: #bae1ea;
      }

      .cls-138 {
        fill: #7dbfcc;
      }

      .cls-139 {
        fill: #f7fbf9;
      }

      .cls-140 {
        fill: #f2f9fa;
      }

      .cls-141 {
        fill: #fafdfe;
      }

      .cls-142 {
        fill: #86ccd4;
      }

      .cls-143 {
        fill: #eef8fa;
      }

      .cls-144 {
        fill: #c6e6ec;
      }

      .cls-145 {
        fill: #84ccd7;
      }

      .cls-146 {
        fill: #f9fcfb;
      }

      .cls-147 {
        fill: #83cadd;
      }

      .cls-148 {
        fill: #fafcfb;
      }

      .cls-149 {
        fill: #a3d8e6;
      }

      .cls-150 {
        fill: #8cc8d9;
      }

      .cls-151 {
        fill: #e0f0ec;
      }

      .cls-152 {
        fill: #f4fafa;
      }

      .cls-153 {
        fill: #a2d8ea;
      }

      .cls-154 {
        fill: #7bbbd4;
      }

      .cls-155 {
        fill: #88cdda;
      }

      .cls-156 {
        fill: #8cd0e3;
      }

      .cls-157 {
        fill: #76c1d3;
      }

      .cls-158 {
        fill: #f6fafb;
      }

      .cls-159 {
        fill: #f7fbfc;
      }

      .cls-160 {
        fill: #eaf6f9;
      }

      .cls-161 {
        fill: #78bfd5;
      }

      .cls-162 {
        fill: #87c7d8;
      }

      .cls-163 {
        fill: #f5fafa;
      }

      .cls-164 {
        fill: #7abdd4;
      }

      .cls-165 {
        fill: #f2f9fc;
      }

      .cls-166 {
        fill: #87cdde;
      }

      .cls-167 {
        fill: #aeddec;
      }

      .cls-168 {
        fill: #9ad5e5;
      }

      .cls-169 {
        fill: #92d2e3;
      }

      .cls-170 {
        fill: #87cadf;
      }

      .cls-171 {
        fill: #addadd;
      }

      .cls-172 {
        fill: #76c0d3;
      }

      .cls-173 {
        fill: #f5fafb;
      }

      .cls-174 {
        fill: #7abbd4;
      }

      .cls-175 {
        fill: #7cbdd3;
      }

      .cls-176 {
        fill: #dceff4;
      }

      .cls-177 {
        fill: #fbfdfb;
      }

      .cls-178 {
        fill: #edf7fa;
      }

      .cls-179 {
        fill: #83ccdb;
      }

      .cls-180 {
        fill: #a3d8e5;
      }

      .cls-181 {
        fill: #f9fcfd;
      }

      .cls-182 {
        fill: #f8fcfc;
      }

      .cls-183 {
        fill: #9cd1df;
      }

      .cls-184 {
        fill: #d8edf2;
      }

      .cls-185 {
        fill: #74becf;
      }

      .cls-186 {
        fill: #8ccbd7;
      }

      .cls-187 {
        fill: #a6d9e7;
      }

      .cls-188 {
        fill: #ecf7fa;
      }

      .cls-189 {
        fill: #a3d9ed;
      }

      .cls-190 {
        fill: #a7d9e1;
      }

      .cls-191 {
        fill: #a5d9e7;
      }

      .cls-192 {
        fill: #89cedc;
      }

      .cls-193 {
        fill: #80b8c7;
      }

      .cls-194 {
        fill: #75bfd1;
      }

      .cls-195 {
        fill: #a6d8e0;
      }

      .cls-196 {
        fill: #f7fbfa;
      }

      .cls-197 {
        letter-spacing: -.02em;
      }

      .cls-198 {
        fill: #d7edf3;
      }

      .cls-199 {
        fill: #88cadc;
      }

      .cls-200 {
        fill: #7abdcc;
      }

      .cls-201 {
        fill: #def0f5;
      }

      .cls-202 {
        fill: #76c1d1;
      }

      .cls-203 {
        fill: #b1dde8;
      }

      .cls-204 {
        fill: #b6dfe9;
      }

      .cls-205 {
        fill: #84ccd8;
      }

      .cls-206 {
        fill: #7dbbca;
      }

      .cls-207 {
        fill: #f2f9f7;
      }

      .cls-208 {
        fill: #f1f9fb;
      }

      .cls-209 {
        fill: #86cada;
      }

      .cls-210 {
        fill: #d2ebf5;
      }

      .cls-211 {
        fill: #8ac8d5;
      }

      .cls-212 {
        fill: #8bcad7;
      }

      .cls-213 {
        fill: #a1d8ea;
      }

      .cls-214 {
        fill: #84cdde;
      }

      .cls-215 {
        fill: #bce1e3;
      }

      .cls-216 {
        fill: #f5fafc;
      }

      .cls-217 {
        fill: #a3d9ec;
      }

      .cls-218 {
        fill: #b7dee5;
      }

      .cls-219 {
        fill: #a9dae6;
      }

      .cls-220 {
        fill: #90cbd5;
      }

      .cls-221 {
        fill: #83cbde;
      }

      .cls-222 {
        fill: #7fbbd3;
      }

      .cls-223 {
        fill: #f3f9fc;
      }

      .cls-224 {
        fill: #84cbdd;
      }

      .cls-225 {
        fill: #c4e5ef;
      }

      .cls-226 {
        fill: #f6fbfc;
      }

      .cls-227 {
        fill: #93d3e5;
      }

      .cls-228 {
        fill: #a8dae7;
      }

      .cls-229 {
        fill: #b2dee8;
      }

      .cls-230 {
        fill: #85cddc;
      }

      .cls-231 {
        fill: #83cbdc;
      }

      .cls-232 {
        fill: #f8fbfb;
      }

      .cls-233 {
        fill: #84ccde;
      }

      .cls-234 {
        fill: #a5daed;
      }

      .cls-235 {
        fill: #f8fcfd;
      }

      .cls-236 {
        fill: #a4d9e9;
      }

      .cls-237 {
        fill: #79bed1;
      }

      .cls-238 {
        fill: #7bbcd1;
      }

      .cls-239 {
        fill: #fbfcfb;
      }

      .cls-240 {
        fill: #bbe2ec;
      }

      .cls-241 {
        fill: #abdbe4;
      }

      .cls-242 {
        fill: #a3d8e0;
      }

      .cls-243 {
        fill: #87bccb;
      }

      .cls-244 {
        fill: #7cbdcf;
      }

      .cls-245 {
        fill: #75bed2;
      }

      .cls-246 {
        fill: #88cbdb;
      }

      .cls-247 {
        fill: #dff1f9;
      }

      .cls-248 {
        fill: #91c8d6;
      }

      .cls-249 {
        fill: #b4dfe8;
      }

      .cls-250 {
        fill: #a2d8e8;
      }

      .cls-251 {
        fill: #a3d9ee;
      }

      .cls-252 {
        fill: #fefefe;
      }

      .cls-253 {
        fill: #76bfd4;
      }

      .cls-254 {
        fill: #8ed1e2;
      }
    </style>
  </defs>
  <g id="Capa_1-2" data-name="Capa 1">
    <text class="cls-13" transform="translate(0 59.41)"><tspan class="cls-120" x="0" y="0">M</tspan><tspan class="cls-69" x="63.44" y="0">O</tspan><tspan class="cls-120" x="122.71" y="0">AR</tspan></text>
    <text class="cls-70" transform="translate(46.57 89.96)"><tspan x="0" y="0">Lugares y </tspan><tspan class="cls-197" x="65.38" y="0">R</tspan><tspan x="74.51" y="0">eservas</tspan></text>
    <g>
      <path class="cls-52" d="m120.2,32.71c1.11.78,2.01,1.78,2.83,2.87.68.44,1.15,1,.93,1.92.21.89,1.11,1.52.88,2.57.42,1.09.29,2.17,0,3.26,0,.42.02.85.03,1.27.31.47.1.91-.07,1.35-.07.13-.17.25-.3.33-.05,0-.1,0-.15-.02-.51-.09-.43-1.12-1.09-.84-.52.23-.24.83-.28,1.28-.08.85.36,1.15,1.07,1.23-.16,1.93-.47,3.8-1.74,5.33-.4.18-.95.24-.67.94.03.14.03.28.03.43,0,.31-.3.65-.09.89.17.19.44-.09.65-.21.34-.24.7-.45,1.05-.67,1.37-.68,2.02-1.96,2.58-3.33.1-.2.2-.4.3-.6.24-.76.1-1.54.12-2.31,0-.66.02-1.32-.2-1.95-.28-.94.09-1.88.03-2.82.26-.58.4-1.28,1.2-1.32.62-.41,1.14-.33,1.55.33l.63.64c.19.64.77.9,1.19,1.32.84,1.15,1.64,2.31,1.61,3.86.1.14.18.29.23.46.1.68,0,1.37.1,2.06.11,1.26-.54,2.24-1.08,3.27-1.69.7-1.91,2.54-2.78,3.88-.23.29-.48.54-.76.78-.12.08-.25.14-.39.18-.73.08-1.42.24-1.63,1.14-.12.2-.29.35-.5.44-1.03.19-2,.64-3.02.86-.16,0-.3-.04-.44-.12-.14-.2-.17-.43-.14-.67.05-.21.13-.41.22-.6.39-.84.83-1.72-.03-2.49-.8-.72-1.63-.27-2.45.11-1.01.47-1.76,1.29-2.51,2.09-.41.4-.69.89-1.03,1.35-.38.44-.65.96-1.02,1.41-1.08,1.4-2.44,2.31-4.15,2.63-.31.06-.63.08-.95.09-3.16-.26-5.99-1.39-8.39-3.59.25-1.94-1.52-2.7-2.27-4.05-.42-.76-.91-1.84-2.11-1.86-.18,0-.43-.16-.39-.41.08-.53.54-.56.92-.67.9,0,1.77.23,2.64.43,2.4.85,4.91,1.02,7.39,1.37.55.18,1.11.24,1.68.2,2.5.06,4.93-.23,7.22-1.37.38-.18.78-.34,1.14-.59.37-.27.69-.58.96-.96.18-.28.26-.6.43-.89.08-.11.16-.22.25-.32.63-.94,1.13-1.94,1.38-3.06.03-.14.08-.28.13-.41.08-.19.18-.38.28-.56.27-.73.21-1.47.01-2.2-.09-.26-.2-.51-.29-.76-.16-.51-.33-1.03-.58-1.5-.19-.42-.36-.85-.63-1.23-.12-.16-.23-.32-.33-.49-.3-.52-.63-1.03-.96-1.53-.16-.23-.29-.48-.41-.74-.34-.81-.88-1.56-.78-2.52.07-.29.2-.56.36-.81.6-.93.47-1.87.04-2.81-.16-.67.23-1,.73-1.25.1-.01.19-.02.29-.04.52-.16,1.03-.26,1.54.05Z"/>
      <path class="cls-221" d="m118.05,54.91c-.31.21-.62.43-.93.64-1.71.2-3.44.34-5.13.48-1.32.11-2.84.57-4.23-.02-.46-.2-.9-.14-1.34.07-.81.4-1.38.1-1.79-.66-.11-.24-.25-.55-.14-.75.72-1.39-.03-2.1-1.09-2.69-.07-.24-.04-.45.12-.64l1.23-1.27c.83-.01.56-.9.94-1.28.63-.85,1.27-1.7,1.9-2.55.35-.22.62-.56.93-.82.65-.54.62.16.77.52.04-.68-.78-1.25-.22-1.99,0-.09.03-.18.05-.27.98,0,1.32-.5,1.13-1.49-.11-.57-.13-1.15-.2-1.72,0-.11,0-.23,0-.34.87-1.39.25-3.01.62-4.47.42-.86,1.15-.9,1.83-.55.96.49.59,1.39.44,2.09.51-.72,1.01-.7,1.36.21.27.7.12,1.48.16,2.22.04.56-.12,1.26.58,1.5.75.26.94-.41,1.18-.93.11-.25.28-.44.58-.43.64.74.28,1.76.68,2.56.34,1.23.41,2.49.37,3.76-.03.5-.02,1.01-.13,1.5-.11.65-.99,1.52.47,1.71.57.38.67,1.02.79,1.64.03.23.02.46-.01.68,0,.49-.68,1.14.31,1.39,0,.36.05.73-.31.97-.63-.02-.8.45-.93.96Z"/>
      <path class="cls-214" d="m116.77,39.78c-.47.73.06,2.31-1.68,1.97-.75-.15-1.1-.34-1.05-1.16.04-.74.04-1.49,0-2.23-.03-.49.27-1.24-.4-1.36-.78-.14-.28.87-.7,1.16-.5-.89.49-2.19-.67-2.81-.41-.22-1.16-.32-1.31.57-.66.41-.93-.16-1.28-.54-.21-.33.02-.77-.26-1.08-.3-.64-.59-1.29-.89-1.93.25-.64-.29-.72-.62-.96-.12-.2-.24-.41-.36-.61-.22-.32-.21-.66-.12-1.04.26-1.15-.4-1.04-1.1-.85-.33-.19-.6-.44-.72-.83.24-1.22-.26-2.5.28-3.69.67-.4.9.22,1.18.6.44.58.91,1.13,1.33,1.72,1.15,1.48,1.95,3.16,2.62,4.91.05.08.06.18.04.29.18-.11.04.24.08.03,0,0-.04-.04-.06-.13-.07-.3-.21-.57-.3-.86-.66-1.33-.91-2.79-1.29-4.21,0-.17.04-.32.11-.47.17-.19.39-.26.63-.25.35.03.53.3.71.56.42.63.83,1.26,1.25,1.89.39.93.63,1.96,1.58,2.51.47.28.66.75.8,1.27.16.19-.25.51.15.64.12-.02.2.04.23.15.11.63.22,1.25.33,1.88.22.49.32,1.05.76,1.41.14.26.18.54.2.83,0,.72.12,1.41.49,2.03.09.2.18.4.02.6Z"/>
      <path class="cls-250" d="m65.6,26.24c0-.1,0-.2.01-.3.26-.4.18-.99.64-1.29.51-.64,1.01-1.29,1.52-1.93.35-.65.84-1.11,1.55-1.3,1.53-.88,3.09-1.68,4.9-1.64.68-.29,1.4-.07,2.09-.14.37.01.63.18.32.54-.32.37-.36.83-.53,1.25-.59.73-1.79.53-2.18,1.56-.22.34-.57.35-.91.35-.19.11-.39.22-.58.33-.11.11-.24.13-.38.06-.36-.36-.78-1.26-.97.1-.06.42-.23.82-.21,1.25,0,.07.01.14.02.21,0,.1,0,.21.02.31-.03.86-.72,1.16-1.25,1.6-1.35,1.62-2.13,3.61-3.12,5.46-.44.76-.96,1.27-1.85.68-.21-.22-.42-.43-.63-.65-.59-.92-.13-1.94-.25-2.91.14-.64.56-1.1.91-1.61.41-.18.65.52,1.07.24.4-.78-.66-1.42-.18-2.2Z"/>
      <path class="cls-9" d="m108.18,26.9c-.72-.86-1.44-1.72-2.16-2.58-.29-.07-.46-.29-.63-.52-.31-.47-.64-.92-1.09-1.26-.86-.83-1.66-1.73-2.51-2.57-.8-1.11-2.05-1.68-2.98-2.64-.33-.88-1.11-1.46-1.43-2.35.11-1.23.82-.97,1.55-.68.9.1,1.82.15,2.46.98,1.41,1.1,3.09,1.87,4.01,3.56.04.66.64.86.97,1.29.3.43.59.86.89,1.29.02.63.42.99.88,1.3.12.32.25.64.37.96.41.35.9.63,1.05,1.22-.14.47.34.87.15,1.35,0,.11,0,.21,0,.32-.49.22-1.03.19-1.54.32Z"/>
      <path class="cls-250" d="m63.12,65.56c-.3-.22-.6-.45-.91-.67-.38-.26-.81-.46-.91-.99-.19-.69-.92-1.11-.9-1.91,1-.43,1.31.67,1.98.96.41.29.81.58,1.27.8.92.47,1.92.62,2.9.88.71.24,1.42.23,2.13,0,.66-.12,1.31-.28,1.98-.3.45.06.88-.02,1.32-.11.54-.07,1.08-.06,1.62-.07.46,0,.93,0,1.38.15,1.15,1.15,1.16,1.43.22,2.78-.14.19-.2.47-.35.68-.55.47-1.2.34-1.83.36-1.66.47-3.31.47-4.97,0-1.72.06-3.13-.65-4.32-1.91.42-.86-.22-.63-.61-.65Z"/>
      <path class="cls-221" d="m69.61,58.44c1.36.64,2.48-.37,3.71-.6.11-.12.24-.14.38-.07.33.31.58.68.71,1.13-.1.87.9,1.02,1.03,1.63.17.79.31,1.04,1.22,1.1.84.05.34.95.08,1.49-.64.55-1.46.6-2.21.84-.32.06-.64.08-.96.07-2.03-.07-4.05-.34-6.09-.32-.68,0-1.73.24-1.87-.58-.14-.8-.53-1.89.36-2.65.16-.13.17-.38.28-.56.08-.13.18-.23.31-.32.63-.24,1.35.04,1.94-.4.4-.2.71-.56,1.11-.75Z"/>
      <path class="cls-153" d="m83.85,28.2c-.09-.39.14-.67.31-.97.41-.14.84-.41,1.31.15-.18-.61-.23-1.14,0-1.65.4-.43.97-.71,1.11-1.37.76-.57,1.49-1.19,2.47-1.28.6.26.74.83.48,1.3-.44.81-.05,1.48.13,2.2-.4.54-.8,1.08-1.19,1.62-.22.96-.47,1.89-1.23,2.57-.46.63-.54,1.53-1.28,1.97-.27.2-.55.27-.85.12-.18-.13-.2-.37-.31-.52-.23-.3,1.01-1.06-.41-1.09-.53-.01-.23-1.45-.45-2.21-.08-.27.09-.58-.09-.84Z"/>
      <path class="cls-161" d="m87.2,52.6c1.43.35,2.86.7,4.29,1.05.24.19.56.1.8.28.2.12.33.3.44.51.16.8.95.7,1.41,1.07.47.37,1.23.66.88,1.45-.35.8-1.16.71-1.74.4-.87-.46-1.66-.85-2.54-.11-.78.19-1.44-.19-2.12-.46-.12-.07-.21-.18-.28-.29-.3-.64-.96-.07-1.35-.42-.13-.07-.25-.15-.37-.23-2.1-.62-2.36-1.15-1.63-3.27.29-.23.63-.21.97-.23.44-.04.87-.02,1.24.27Z"/>
      <path class="cls-213" d="m88.44,56.52c.78,0,1.46.37,2.16.64.64-.42,1.18.04,1.71.27,2.31.99,4.47,2.26,6.45,3.85.44.29.9.55,1.35.84,2.38,1.67,5.02,2.6,7.84,3,.48.09.98.03,1.42.3.14.14.15.29.04.46-.31.48-.81.23-1.22.33-.08,0-.15-.01-.23-.02-.92-.03-1.83,0-2.75-.02-.15,0-.3-.03-.45-.06-2.21-.56-4.21-1.6-6.11-2.86-.52-.39-1.07-.74-1.64-1.05-.36-.24-.72-.49-1.11-.68-1.88-1.19-4.05-1.61-6.05-2.47-.7-.71-1.54-1.33-1.43-2.53Z"/>
      <path class="cls-9" d="m80.45,12.75c.91-.45,1.71-1.14,2.76-1.26,1.63.17,3.26-.02,4.9,0,.62.19,1.15.68,1.85.62-.13.95-.93.45-1.39.69-.14.05-.28.09-.42.11-.93.58-1.89,1.1-2.8,1.73-.95.56-1.82,1.29-2.96,1.39-.6.07-1.16-.07-1.68-.39-.76-.4-1.02-1.06-.9-1.92.23-.32.29-.75.64-.98Z"/>
      <path class="cls-236" d="m91.52,42.38c-.1-.11-.21-.23-.31-.34-.22-1.29-1.37-1.17-2.18-1.57-1.05-.92-2.04-1.9-2.78-3.11-.22-.36-.84-.62-.33-1.17.42-.45.81-.2,1.21.11.18.14.46.15.7.22.69-.26,1.09.26,1.56.61.17.35-.13.57-.26,1.01.92-.49,1.82.06,2.69-.25.62.31,1.24.62,1.86.94.43.03.74.19.75.71-.01.05-.02.1-.04.15-.25.54-1.1.83-.83,1.55.29.75,1.06.31,1.61.4.44.07.91.02,1.25.41l-.23.34c-.64.54-1.44.16-2.13.4-.31.1-.64.06-.96.07-.57.02-1.09-.18-1.58-.45Z"/>
      <path class="cls-253" d="m115.89,61.03c.25-.47.37-1.05.92-1.29.93-.84,1.58-.44,2.06.53.21.43.38.88.84,1.09.37.2.68.47.87.88.04.13.06.27.04.41-.05.12-.13.23-.22.33-.16.11-.31.22-.49.3-1.47.98-3.23.94-4.82,1.51-1.21.43-2.54.54-3.81.79-.28-.13-.46-.31-.31-.66,1.6-.41,2.85-1.42,4-2.59,1.02.13.42-1.02.93-1.29Z"/>
      <path class="cls-104" d="m92.44,54.28c-.11-.1-.21-.21-.32-.31.51-.29,1.04-.24,1.56-.03,1.02.2,1.98.73,3.06.64.34.04.71,0,.95.35-.2.15-.4.3-.85.64,2.21-.36,2.51,1.48,3.31,2.67.23.35.45.87.75.95,1.62.4,1.03,1.49.8,2.49-.49.22-.76-.21-1.1-.42-.62-.45-1.2-.95-1.84-1.37-1.93-2.08-4.05-3.93-6.32-5.6Z"/>
      <path class="cls-20" d="m89.97,58.77c2.11.73,4.35,1.11,6.17,2.58-.08.86-.76.65-1.24.73-.73.12-1.49.09-2.15.51-1.36-.71-2.95-.31-4.32-.97-.21-.2-.43-.4-.42-.74.12-.49.47-.91.32-1.48-.13-.49.08-.8.56-.9.37.03.74.06,1.07.27Z"/>
      <path class="cls-233" d="m97.69,54.92c-.35-.02-.72.04-.95-.35.43-.53,1.05-.18,1.55-.35.49-.61,1.25-.6,1.88-.91l1.5-.67c.6-.24.74.65,1.29.56.13-.41-.55-.44-.41-.87.29-.24.56-.55.99-.32.19.05.39.09.58.15.91.3,2.06.46.82,1.86-.22.25-.12.8-.17,1.21-.89.72-1.89.41-2.87.37-.58-.02-1.16-.37-1.75-.06-.82-.21-1.65-.42-2.47-.63Z"/>
      <path class="cls-22" d="m131.62,57.47c.02.97.05,1.83,1.42,1.34.7-.25.64.51.74.96-.95.59-2.21.58-2.92,1.64-.17.14-.36.24-.55.33-.45.2-.86.49-1.32.68-.64.25-1.2.9-1.99.5-.11-.96-1.35-.34-1.54-1.19.65-.93,1.79-1.07,2.58-1.78.34-.21.68-.43,1-.67.27-.18.55-.36.79-.59.09-.1.19-.2.29-.29.48-.34.75-1.09,1.51-.93Z"/>
      <path class="cls-115" d="m79.79,62.29c-.41.03-.82.05-1.23.08-.29.25-.57.51-.99.32-.78-.99-.03-1.55.54-2.18.35-.31.75-.54,1.14-.8,1.34-.78,2.7-1.45,4.3-1.01.33.74.78,1.44.66,2.32-.45.53-1.18.39-1.69.78-.39.03-.78.1-1.17-.07-.31.11-.63.21-.94.32-.18.15-.37.3-.62.24Z"/>
      <path class="cls-231" d="m77.9,33.67c.47.68.66,1.48.92,2.26-.55.61.05,1.07.2,1.6-.14.66.37,1.49-.47,1.96l-.93-.64c-.31-.67-.66-1.32-1.05-1.94-.32-.76-.3-1.57-.29-2.38,0-1.39,0-2.77,0-4.16-.01-.36.04-.71.12-1.06.21-.52.17-1.19.75-1.51.71.17.46.93.75,1.36h.09c0,.37.06.75,0,1.13-.06.7-.11,1.4.06,2.09.05.22.06.43-.06.63-.03.11-.06.22-.09.33-.2.11-.2.23,0,.34Z"/>
      <path class="cls-3" d="m98.9,17.22c1.25.59,2.35,1.36,3.11,2.59.51.77.49,1.27-.57,1.25-.24-.05-.47-.12-.65-.32-1.27-.67-2.61-1.1-4.04-1.21-.21.13-.42.12-.63.02-.09-.12-.15-.26-.17-.41,0-.15.04-.29.1-.43.46-.8,1.6-.84,1.9-1.84.42-.19.69.08.95.34Z"/>
      <path class="cls-135" d="m93.08,15.3c.52.08,1.11-.2,1.55.31-.6.67-1.48.31-2.18.64-2.05.37-4.1.76-6.15,1.11-.91.17-1.81.37-2.71.59-.14.05-.29.04-.43-.02-.4-.66-.16-1.13.47-1.32.57-.18.84-.46.74-1.08.33-.53.86-.66,1.39-.81.25-.04.5-.03.74.01,2.17.48,4.44-.24,6.58.55Z"/>
      <path class="cls-118" d="m89.67,26.58c-.78-.51-1.42-1.04-.53-2.05.42-.47.15-.98-.08-1.46.1-.03.2-.06.3-.08.37-.31.82-.28,1.25-.29.61,0,1.23,0,1.84,0,.49.09,1.14-.19,1.28.64-1.36,1.08-2.71,2.15-4.07,3.23Z"/>
      <path class="cls-194" d="m128.54,58.13c.42-1.02.78-2.07,1.27-3.05.29-.58.87-.89,1.55-.84.54-.08.81.27,1.04.69.13.46-.03.9-.11,1.34-.05.22-.13.43-.3.59-.11.11-.21.22-.32.32-1.02.01-1.27.84-1.57,1.61h0c-.74.33-1.42.52-1.57-.67Z"/>
      <path class="cls-22" d="m115.91,37.17c-.02-.31-.03-.62-.05-.92-.28-.28-.65-.53-.22-.98.66-.02.47-.66.69-1.08.28.38.54.73.79,1.08.54.51.3,1.19.38,1.8.06.15.04.3-.03.45-.06.99.75,1.67.87,2.6-.16.87-.21,1.8-1.16,2.22-.61-.77-.24-1.71-.4-2.56-.07-.11-.15-.22-.22-.33-.32-.73-.39-1.53-.65-2.28Z"/>
      <path class="cls-191" d="m81.66,25.29c.21-.01.42-.41.64-.02.09.11.16.24.2.39.02.69-.22,1.29-.54,1.87-.09.11-.18.22-.27.33-.6,1.57-.38,3.28-.8,5-.64-.61-.75-1.35-.8-2.11-.09-.12-.1-.25-.05-.39.1-.43.36-.87-.04-1.28-.03-.2-.04-.4.09-.58,0-.32.02-.64.03-.96.2-.99.55-1.87,1.55-2.26Z"/>
      <path class="cls-68" d="m76.71,34.63c.12.75-.27,1.57.31,2.25.21.44.27.88-.01,1.32-.99-.84-1.14-2.03-1.24-3.24.03-1.51-.38-2.99-.25-4.51.2-1.27.33-2.56,1.19-3.59.14.12.22.27.27.45-.11.61-.02,1.25-.25,1.83,0,.32,0,.64,0,.96-.26,1.5-.26,3.01,0,4.51Z"/>
      <path class="cls-63" d="m130.66,61.34c.63-1.4,1.79-1.67,3.12-1.57.43.57.93,1.13.3,1.88-.08.11-.18.19-.29.26-.33.15-.73.16-.94.54-.07.1-.17.19-.27.26-.48-.17-.81.32-1.26.29-.39-.48-.28-1.18-.67-1.66Z"/>
      <path class="cls-166" d="m98.62,62.96c2.04,1.02,4,2.19,6.17,2.9-.44.5-1.03.25-1.55.34-1.4-.24-2.71-.75-4-1.35-.22-.52-.35-1.09-.75-1.5,0-.15.05-.28.14-.39Z"/>
      <path class="cls-149" d="m96.42,42.03c-.66,0-1.34.06-1.99-.02-.49-.06-1.3.4-1.39-.39-.08-.68-.2-1.7.92-1.89.13-.02.23-.19.34-.3.11-.13.21-.13.3.02.57.88,1.69,1.34,1.82,2.57Z"/>
      <path class="cls-47" d="m92.75,62.6c.25-.94.99-.86,1.69-.93.57-.05,1.21.24,1.71-.32.44,0,.75.22.93.64.55,1.06-.14,1.44-.89,1.8-.34,0-.68.05-.96-.21-.67-.76-1.68-.56-2.47-.99Z"/>
      <path class="cls-129" d="m132.24,54.93c-.29-.23-.59-.46-.88-.69-.04-1.16,1.1-1.96.89-3.17.11-.14.16-.33.31-.45.13-.04.23,0,.3.11.32,1.79.25,3.6.14,5.4-.03.44-.26,1.14-1.02.73,0-.22,0-.43,0-.65.22-.4.65-.75.26-1.28Z"/>
      <path class="cls-250" d="m66.84,59.74c-.1,0-.21,0-.31.01-.44.7-1.04,1.1-1.86,1.07-.53-.26-.85-.67-.83-1.31.04-.16.12-.29.23-.4.48-.64,1.45-.49,1.85-1.26.56-.29,1.11-.32,1.64.05.19.31.21.65.13,1-.12.47-.54.59-.86.84Z"/>
      <path class="cls-65" d="m83.47,17.91c.62-.92,1.73-.47,2.5-.98.74.69,1.77-.09,2.52.55.22.31.23.65.09,1-.2.33-.55.39-.87.51-.58-.02-1.16.12-1.73-.1-.11-.03-.21-.05-.32-.08-.46-.38-.99-.34-1.53-.34-.2-.09-.41-.19-.61-.28-.11-.04-.15-.1-.13-.17.02-.08.05-.11.08-.11Z"/>
      <path class="cls-244" d="m128.26,60.08c-.73.93-1.81,1.21-2.8,1.65-.62.18-1.23.36-1.85.54-.19-.17-.23-.39-.2-.64.4-.92,1.36-.83,2.04-1.24.11-.11.21-.21.32-.32.34-.58.79-.95,1.48-.85.44.15.85.34,1.01.85Z"/>
      <path class="cls-62" d="m81.34,52.7c.3-.02.6-.04.9-.06.3-.18.61-.26.93-.09.17,1.34-.31,2.41-1.23,2.76-.48.02-.95.03-1.39-.21-.26-.79-1.25-1.35-.75-2.4.11,0,.22,0,.33,0,.41.13.81.38,1.21,0Z"/>
      <path class="cls-136" d="m63.46,72.33c-1.13-.3-1.63-1.08-1.58-2.28-.15-.35-.26-.68.32-.64.1.1.2.21.31.31.39.26.95.14,1.25.6.66.35,1.37.67,1.25,1.66-.05.05-.1.1-.15.15-.38.21-.8.12-1.2.17-.07,0-.13.01-.2.02Z"/>
      <path class="cls-31" d="m83.53,41.38c-.89.53-1.87.29-2.81.31-.27,0-.5-.13-.54-.43-.04-.28.11-.65.32-.64,1.08.06,1.31-1.12,2.08-1.48.12-.1.24-.11.37-.01.05.79.63,1.43.59,2.26Z"/>
      <path class="cls-119" d="m72.99,55.19c1.21-.87,2.63-1.18,4.01-1.6.43.11.87.2,1.25.44.58.36.36.73-.04,1.07-.44.23-.92.22-1.4.23-.53-.02-1.05.06-1.56.21-.58.07-1.17.15-1.68.5-.24.05-.46.02-.65-.16-.11-.24-.1-.48.06-.69Z"/>
      <path class="cls-246" d="m77.91,29.16c-.35-.35-.54-.79-.58-1.29-.11-.11-.18-.24-.23-.4.05-1.31.92-2.07,1.76-2.86.33-.72.95-.63,1.54-.61-.03,1.08-.55,1.81-1.48,2.26-.53.89-.89,1.85-1.01,2.9Z"/>
      <path class="cls-45" d="m76.1,21.45c-.96-1.02.02-1.24.61-1.63.21-.19.42-.18.64-.02.87.05,1.8-.17,2.48.65.09.12.07.22-.04.3-1.23.23-2.45.46-3.68.69Z"/>
      <path class="cls-43" d="m105.71,23.68c.1.21.21.43.31.64.06.94-.18,1.91.14,2.82.2.58-.27.71-.45,1.05.08.07.11.15.09.24-.02.09-.04.13-.06.13-.36.13-.48-.15-.64-.39-.05-.54-.45-1.02-.3-1.6-.16-.85.21-1.69.04-2.54,0-.11,0-.23-.01-.34.29-.3.59-.23.88,0Z"/>
      <path class="cls-31" d="m109.42,24.94c-.36-.38-.79-.7-.9-1.27.57-.4,1.08-.94,1.9-.63.34.13.65.43.48.64-.82,1.02.25,1.93.06,2.89-.19-.11-.38-.23-.58-.34-.43-.34-.78-.75-.96-1.29Z"/>
      <path class="cls-89" d="m74.85,67.76c-.4-.24-.03-.68-.26-1.1-.37-.68.34-.36.68-.2.11.05.24.08.48.17-.22-.77-.41-1.41-.59-2.05-.07-.08-.1-.17-.08-.26.02-.09.04-.13.07-.13.35-.22.7-.1,1.04.02.21.08.37.22.51.39.45,1.42-.17,2.49-1.85,3.17Z"/>
      <path class="cls-245" d="m78.25,54.91c.07-.27.28-.62-.23-.63-.48-.02-.83-.21-1.02-.69.15-.3.4-.28.65-.23.57.2,1.05-.03,1.52-.33.21-.11.41-.21.62-.32.02.31-.05.72.3.83.87.29.57.83.32,1.37-.72.57-1.44.57-2.16,0Z"/>
      <path class="cls-105" d="m130.09,63.58c-.08,1.06-.67,1.43-1.63,1.32-1.12-.13-2.33.35-3.31-.59.53-.71,1.37-.35,2.03-.64.85-.13,1.67-.36,2.51-.52.24.03.47.08.4.43Z"/>
      <path class="cls-228" d="m61.87,59.09c.13-.94.59-1.44,1.55-1.28.29.74.3,1.47,0,2.21-.19.38-.43.73-.82.93-.54.15-1.17.49-1.17-.57-.12-.53-.09-1,.43-1.3Z"/>
      <path class="cls-22" d="m78.92,26.26c.49-.75.98-1.5,1.48-2.26.48.37.2,1.54,1.26,1.29-.52.75-1.03,1.51-1.55,2.26-.24-.58-.66-1-1.19-1.29Z"/>
      <path class="cls-181" d="m98.9,17.22c-.3-.09-.6-.18-.9-.26-.54.2-.93-.19-1.38-.35-.44-.23-.94-.27-1.38-.49-.19-.13-.31-.3-.33-.55.72-.68,1.78.17,2.48-.6.68.62,1.62,1.05,1.51,2.25Z"/>
      <path class="cls-125" d="m110.07,40.44c.89.85.49,2.01.62,3.03.07.59-.24.63-1.55.18.31-1.07.62-2.14.93-3.21Z"/>
      <path class="cls-217" d="m65.6,26.24c-.03.57.75.8.6,1.38-.13.5.69,1.14-.16,1.49-.78.32-1.01-.4-1.33-.91-.07-.83.22-1.49.89-1.96Z"/>
      <path class="cls-132" d="m86.29,15.01c-.21,0-.41,0-.62-.01-.59.03-.5-.31-.34-.69.79-.78,1.75-1.24,2.78-1.54.11.06.15.12.11.19-.04.06-.07.1-.11.1.18.41.66.2.93.49-.53.51-1.62-.4-1.85.8.02.31-.06.57-.32.75-.2.06-.4.07-.59-.07Z"/>
      <path class="cls-174" d="m129.81,63.31c-.74.59-1.61.63-2.48.66-.49-.12-1.23.02-.94-.95.2-.03.41-.06.61-.1.62-.29,1.24-.58,1.86-.87.38.37.84.67.95,1.26Z"/>
      <path class="cls-209" d="m109.76,35.27c.4.21.79.43,1.19.64-.06,1.27-.21,2.54-.13,3.8.06,1.06-.54.2-.75.39,0-.21,0-.42,0-.64.21-.87.21-1.73,0-2.6l-.05.02c-.26-.51-.6-1.01-.25-1.62Z"/>
      <path class="cls-86" d="m96.17,19.48c.19.02.39.04.58.06-.97.43-1.81.48-2.95.12-1.34-.43-2.99-.54-4.45.17-.36.18-.38.14-.3-.61.15-.25.38-.35.64-.41.58-.09,1.17-.05,1.76-.07.48,0,.97,0,1.45.01.47,0,.93.02,1.39.09.15.02.3.06.44.1.48.18,1.03.13,1.44.53Z"/>
      <path class="cls-79" d="m83.53,41.38c-.34-.7-1.34-1.21-.62-2.23.58-.21.64.36.89.65.14.5.7.53.94.92.19.46.75.93-.03,1.37-.53.01-.77-.5-1.19-.7Z"/>
      <path class="cls-155" d="m101.36,20.8c.86.14.79-.4.65-.98.95.73,1.77,1.59,2.47,2.58.17.24.19.47-.01.7-.81-.56-1.63-1.11-2.44-1.67-.17-.26-.78-.02-.67-.62Z"/>
      <path class="cls-86" d="m76.7,64.59c-.2-.02-.4-.03-.61-.05-.2-.88-1.39.1-1.52-.89.71-.24,1.43-.49,2.14-.73.24-.33.49-.62.92-.32.31-.08.62-.16.93-.23.02.54-.12.94-.74.92-.87-.03-1.15.49-1.12,1.31Z"/>
      <path class="cls-107" d="m91.81,37.89c-.87.86-2.27.77-3.03.66-.9-.13.28-.85.58-1.31.08-.13.18-.16.31-.07.71.24,1.43.47,2.14.71Z"/>
      <path class="cls-19" d="m84.11,28.83c.64.66.08,1.55.4,2.27.22.1.37-.05.53-.18.31-.27.71-.74,1.02-.29.28.41.02.83-.59.96-.49.11-.42.65-.43,1.08-.36.22-.45-.12-.6-.33l-.59-1.28c.17-.73-.36-1.56.27-2.23Z"/>
      <path class="cls-42" d="m106.33,28.83c.43-.04.18-1.19.87-.65.45.35,1.23.78.66,1.61-.23.33-.28.65-.3,1.01-.51-.33-.91-.76-1.23-1.29-.16-.23-.19-.45.01-.67Z"/>
      <path class="cls-72" d="m73.63,57.86l-.15-.03s-.15,0-.15,0c-.11-.88-.63-.47-1.12-.48-1,0-1.62-.39-.72-1.48.37-.07.75-.22,1.11.05.46.82,1.62.21,2.04,1.1-.05.41-.34.62-.61.85-.14.07-.27.06-.4-.02Z"/>
      <path class="cls-180" d="m126.08,28.56c1.19.35,1.33,1.87.31,3.18-1.21-.95-.57-2.08-.31-3.18Z"/>
      <path class="cls-230" d="m96.14,63.65c.41-.49,1.12-.8.94-1.66.63.13,1.21.33,1.54.97,0,.11,0,.22,0,.33-.27.34-.58.66-.93.92l-.63-.22c-.4.14-.81.33-.93-.34Z"/>
      <path class="cls-162" d="m82.57,61.63c.24-.98,1.01-.46,1.54-.6,1.34-.73,2.67-.72,4.01,0,.24.12.3.34.31.59-.41.01-.81.02-1.22.03-1.15-.2-2.3-.35-3.44.11-.41.03-.84.21-1.21-.15Z"/>
      <path class="cls-182" d="m124.57,45.9c.1-.43.2-.86.31-1.3.57.14.86-.3,1.19-.64.42.97-.1,2.05.34,3.01.11.25.05.49-.06.72-.1.13-.23.21-.39.24-1.19-.52-.7-1.33-.44-2.13-.25.03-.57.49-.95.1Z"/>
      <path class="cls-128" d="m90.58,23.02c-.41,0-.81-.01-1.22-.02.08-.55.45-.62.89-.61,1.06.01,2.12-.04,3.17.03.54.04,1.15.27.32.93-.34-.46-.84-.27-1.28-.34-.63-.23-1.26-.24-1.88,0Z"/>
      <path class="cls-39" d="m89.03,40.46c.19-.3.55-.48.74-.21.54.76,1.01.3,1.5-.05.46.68-.25,1.23-.06,1.83-.9-.26-1.63-.77-2.18-1.57Z"/>
      <path class="cls-200" d="m141.49,53.29c.51-.38,1.15-1.09,1.62-.28.47.81-.52,1.14-.97,1.61-.96-.05-1-.58-.65-1.32Z"/>
      <path class="cls-234" d="m78.86,24.61c-.27,1.11-1.45,1.71-1.54,2.93-.35.2-.44-.14-.61-.31,0-.12,0-.24-.01-.36.44-1.04.79-2.18,2.16-2.26Z"/>
      <path class="cls-229" d="m86.29,15.01c.2-.02.4-.04.6-.06.16-.12.32-.2.51-.25,1.48.07,3-.36,4.45.27.42.06.91-.15,1.23.32-2.26-.26-4.56.58-6.79-.29Z"/>
      <path class="cls-28" d="m102.63,52.34c.26.54,1.35.08,1.2,1.1-.03.23-.17.45-.38.37-.58-.19-1.37-.03-1.55-.95-.02-.08-.14-.15-.21-.22.31-.22.62-.44.93-.66.08.07.11.15.09.23-.02.08-.05.12-.07.12Z"/>
      <path class="cls-181" d="m87.25,30.77c.28-.93.57-1.84,1.23-2.57.38,2.48.22,2.69-1.23,2.57Z"/>
      <path class="cls-48" d="m75.51,30.46c.3,1.49,1.03,2.95.25,4.51-.26-.14-.28-.4-.31-.66-.2-1.18-.19-2.36,0-3.54.02-.1.04-.21.06-.31Z"/>
      <path class="cls-75" d="m126.38,63.02c-.03.68.76.49.94.95-.65.61-1.47.11-2.18.35-.35-.12-.95-.2-.24-.67.44-.29.98-.42,1.47-.63Z"/>
      <path class="cls-237" d="m130.66,61.34c1.31.08.51,1.08.67,1.66-.21.39-.61.24-.92.33-.52-.57-.77-1.19-.32-1.94.19-.02.39-.04.58-.05Z"/>
      <path class="cls-162" d="m89.65,19.13c-.2.03-.4.06-.61.09-.09-.03-.19-.05-.28-.06-.25-.3-.72.02-.95-.35.21-.09.41-.19.62-.28,1.64-.69,3.29-.75,4.93,0,.1.2.05.35-.15.44-.53.06-1.05.02-1.58.03-.66.06-1.33-.14-1.97.13Z"/>
      <path class="cls-45" d="m88.11,11.49c-1.63.63-3.26.81-4.9,0,.19-.02.38-.04.57-.06,1.25-.47,2.5-.48,3.75,0,.19.02.39.04.58.06Z"/>
      <path class="cls-239" d="m114.96,33.03c-.09-.02-.19-.04-.28-.05-.25-.14-.14-.47-.31-.64l-.67-1.26c-.07-.14-.04-.25.09-.32,1.73,0,1.59,1.06,1.18,2.27Z"/>
      <path class="cls-86" d="m81.34,17.88c-.56-.56-.21-1.29-.31-1.93.42-.3.89-.1,1.34-.16.23,0,.44.02.58.25.01.79-.65,1.08-1.05,1.57-.16.15-.34.25-.56.27Z"/>
      <path class="cls-96" d="m85.66,25.61v1.9c-.52-.09-1-.18-1.49-.27.46-.68.83-1.45,1.49-1.97.08.08.11.15.08.23-.02.08-.05.12-.08.12Z"/>
      <path class="cls-122" d="m97.69,64.21c-.07-.72.28-.99.93-.92.72.3.78.89.62,1.57-.62.06-1.04-.39-1.54-.64Z"/>
      <path class="cls-167" d="m119.92,25.9c-.14-.4-.66-.9,0-1.16.62-.25.93.4,1.24.86.19.4.26.79-.15,1.1-.61.1-.76-.48-1.08-.8Z"/>
      <path class="cls-41" d="m130.08,61.39c.11.65.22,1.29.32,1.94-.11.08-.21.17-.32.25-.1-.09-.19-.18-.29-.27-.49-.28-.91-.61-.95-1.26.53.03.77-.54,1.23-.66Z"/>
      <path class="cls-87" d="m62.21,63.28c-.7-.28-.96-1.23-1.81-1.29-.07-.46.17-.63.57-.65.55-.02,1.12-.11,1.6.29.18.62.06,1.17-.36,1.65Z"/>
      <path class="cls-251" d="m117.74,33.98c.88.85.88,2.04,0,2.9-.64-.79-.11-1.71-.27-2.56-.02-.1-.03-.21-.03-.31.08-.18.18-.19.29-.03Z"/>
      <path class="cls-128" d="m101.4,15.28c-.81-.35-1.75-.37-2.46-.98,1.53-.48,2.42-.13,2.46.98Z"/>
      <path class="cls-196" d="m69.65,27.23c.29-.65.73-1.15,1.25-1.6.53.74.01,1.43-.26,2-.16.34-.55-.49-.99-.39Z"/>
      <path class="cls-199" d="m113.78,30.76c-.03.11-.06.22-.09.32-1.17-.46-1.56-1.39-1.49-2.62.79.57.89,1.65,1.58,2.29Z"/>
      <path class="cls-222" d="m86.29,42.03c.66,0,.58.52.63.95.07.12.05.23-.05.33l.03.04c-.55.38-.95.21-1.23-.38-.11-.11-.22-.22-.33-.33-.2-1.08.42-.77.95-.6Z"/>
      <path class="cls-165" d="m87.19,14.98c-.1,0-.2,0-.3-.02.01-.26.07-.48.31-.61,1.53.2,3.12-.43,4.61.35-1.52.39-3.1-.15-4.62.29Z"/>
      <path class="cls-203" d="m68.06,68.12c1.66,0,3.31,0,4.97,0-.14.26-.38.3-.63.33-1.23.23-2.46.23-3.7,0-.25-.03-.5-.07-.64-.33Z"/>
      <path class="cls-164" d="m130.1,58.8c.02-.26.12-.56.04-.79-.34-1.07.16-1.07.91-.85.19.06.41.02.61.03-.02.09-.04.19-.05.28-.51.44-1.01.89-1.52,1.33Z"/>
      <path class="cls-175" d="m141.49,53.29c-.02.57.07,1.08.65,1.32-.42.47-.93.68-1.55.62-.66-.96.33-1.31.64-1.91.09,0,.17-.02.25-.03Z"/>
      <path class="cls-240" d="m87.19,14.98c1.51-.68,3.08-.17,4.62-.29,0,.1.02.19.03.29-1.55,0-3.1,0-4.66,0Z"/>
      <path class="cls-11" d="m110.96,64.91c.1.22.21.44.31.66-.55.56-1.24.17-1.86.31,0-.11,0-.22,0-.33-.07-.06-.11-.14-.11-.22,0-.09.01-.13.03-.13.2-.19.52-.06.7-.29.31,0,.62,0,.93,0Z"/>
      <path class="cls-193" d="m122.7,62.67c-.57.4-1.23.44-1.88.56-.13-.09-.3-.13-.39-.27-.02-.12,0-.22.08-.31l.02-.03c.09-.18.18-.37.39-.45.39-.1.77-.21,1.16-.3.14-.01.27.02.4.08.21.2.42.4.22.73Z"/>
      <path class="cls-22" d="m83.5,23.04c-.59.45-1.09,1.22-2.04.8.18-.73.89-.64,1.12-1.12.39-.14.69,0,.93.32Z"/>
      <path class="cls-187" d="m69.61,58.44c0,.65-.53.75-.93.98-.33.26-.57.16-.75-.2-.08-.61.29-.88.76-1.08.33.02.7-.09.92.3Z"/>
      <path class="cls-55" d="m81.68,27.87c-.02-.11-.02-.21-.01-.32.57-.52.84-1.14.62-1.93,0-.11,0-.23,0-.34,1.21.07.45,1.01.54,1.5.15.82-.43,1.11-1.15,1.09Z"/>
      <path class="cls-114" d="m63.12,65.56c.48-.57,1.15-.28,1.72-.65.04,1.08-.89.78-1.11,1.3-.2-.22-.41-.43-.61-.65Z"/>
      <path class="cls-109" d="m86.29,42.03c-.42.02-.89-.04-.95.6-.33-.04-.49-.28-.63-.55.32-.45.03-.91.03-1.37.52.44,1.04.88,1.55,1.31Z"/>
      <path class="cls-23" d="m79.79,62.29c.13-.28.37-.29.62-.24.02.3.17.67.05.89-.22.43-.73.5-1.03.19-.4-.41.33-.51.36-.85Z"/>
      <path class="cls-71" d="m68.7,58.14c-.21.32-.42.63-.63.95-.2.21-.4.18-.59,0,0-.32,0-.64.01-.96.14-.19.05-.49.27-.64.49-.06.61.45.94.65Z"/>
      <path class="cls-73" d="m64.67,33.37c.73.09,1.31-.23,1.85-.68.09.7-.28,1.06-.86,1.23-.46.13-.9.12-.99-.54Z"/>
      <path class="cls-232" d="m79.79,20.76c0-.1.02-.2.04-.3.42-.02.89-.37,1.22.22.21.38-.09.45-.3.56-.51.28-.89.21-.96-.48Z"/>
      <path class="cls-111" d="m77.99,33c-.03-.21-.05-.42-.08-.63-.19-.75-.18-1.51,0-2.26-.16-.34-.17-.66.09-.96.4,1.28.42,2.57,0,3.85Z"/>
      <path class="cls-1" d="m87.53,11.43c-1.25,0-2.5,0-3.75,0,.02-.1.02-.19.03-.29,1.23-.28,2.46-.29,3.69,0,0,.1.01.19.03.28Z"/>
      <path class="cls-243" d="m83.19,52.66c-.32,0-.64-.01-.96-.02.12-.12.23-.23.35-.35,1.07-.23,2.16-.08,3.23-.09.2.08.26.23.18.44-.32,0-.64,0-.95.01-.62.5-1.23.5-1.85,0Z"/>
      <path class="cls-76" d="m126.08,28.56c.13,1.06-.34,2.18.31,3.18-.14.26-.37.31-.63.31-.25-1.07-.23-2.15-.01-3.22.11-.09.22-.19.33-.28Z"/>
      <path class="cls-235" d="m87.5,11.14c-1.23,0-2.46,0-3.69,0,1.23-.54,2.46-.55,3.69,0Z"/>
      <path class="cls-90" d="m96.14,63.65c.22.37.61.25.93.34-.99,1.74-1.28.02-1.84-.41.3.02.61.04.91.07Z"/>
      <path class="cls-16" d="m123.97,37.51c-.1-.75-.64-1.27-.93-1.92,1.36.08,1.43.85.93,1.92Z"/>
      <path class="cls-218" d="m108.19,66.21c-1.21.6-2.48.19-3.72.26.02-.61.47-.38.78-.44.96.06,1.94-.13,2.89.12l.05.06Z"/>
      <path class="cls-208" d="m68.69,68.46c1.23,0,2.46,0,3.7,0-1.23.49-2.46.49-3.7,0Z"/>
      <path class="cls-56" d="m100.18,53.32c-.55.47-1.14.86-1.88.91.21-1.25,1.15-.85,1.88-.91Z"/>
      <path class="cls-223" d="m88.13,13.05c0-.09,0-.19,0-.28.11-.02.21-.04.32-.06.82-.17,1.65-.31,2.47.03.05,0,.11,0,.14.03.06.05.1.12.15.19l-3.07.11Z"/>
      <path class="cls-141" d="m128.85,42.65c-.48-.27-1.01-.31-1.55-.33.08-.66.55-.63,1-.59.55.05.53.5.55.92Z"/>
      <path class="cls-178" d="m85.95,52.38c-1.12-.03-2.25-.05-3.37-.08,1.09-.61,2.26-.14,3.39-.28.09.13.09.25-.02.36Z"/>
      <path class="cls-146" d="m141.24,53.32c-.03.71-.9,1.1-.64,1.91-1.57-1.29.2-1.36.64-1.91Z"/>
      <path class="cls-49" d="m105.7,48.77q0,1.61-.94,1.28c.29-.44.39-1.03.94-1.28Z"/>
      <path class="cls-160" d="m75.45,30.77c0,1.18,0,2.36,0,3.54-.46-1.18-.45-2.36,0-3.54Z"/>
      <path class="cls-220" d="m78.55,39.48c.44-.71.3-1.51.32-2.28.09-.13.17-.13.26,0,.06.52.07,1.05.19,1.55.18.8-.2.85-.77.73Z"/>
      <path class="cls-130" d="m106.37,20.12c-.21-.52-2.26.47-.97-1.29.49.29.89.66.97,1.29Z"/>
      <path class="cls-10" d="m126.37,47.2c-.59-1.03-.15-2.16-.3-3.24.01-.11.03-.22.05-.33.56.92.13,1.95.29,2.91.17.23.17.45-.03.66Z"/>
      <path class="cls-78" d="m83.78,61.66c1.15-.48,2.29-.51,3.44,0-1.03,0-2.07.02-3.1.02-.12.12-.24.11-.34-.03Z"/>
      <path class="cls-38" d="m125.75,28.83c0,1.07,0,2.15.01,3.22-.55-1.07-.44-2.14-.01-3.22Z"/>
      <path class="cls-173" d="m89.67,37.18c-.1.02-.21.04-.31.07-.51-.24-1.02-.49-1.53-.73.86-.52,1.47-.28,1.84.66Z"/>
      <path class="cls-35" d="m81.34,17.88c.11-.11.21-.22.32-.32.57-.21,1.07-.09,1.53.3.1.01.19.03.28.05.01.1.03.19.05.28-.74-.04-1.57.65-2.18-.31Z"/>
      <path class="cls-182" d="m109.76,35.27c.08.54.17,1.08.25,1.62-1.2-.62-.35-1.74-.6-2.59.38.22.26.64.35.98Z"/>
      <path class="cls-181" d="m85.67,42.96c.37.28.78.41,1.23.38-.04.49-.36.8-.76.73-.59-.1-.45-.67-.46-1.11Z"/>
      <path class="cls-201" d="m93.05,42.69c.31-.01.63-.02.94-.03.71-.21,1.42-.22,2.14,0-.96.7-2.05.19-3.06.33-.1-.06-.14-.13-.11-.2.03-.07.06-.11.1-.11Z"/>
      <path class="cls-46" d="m84.44,32.34c.2.11.4.22.6.33.31.02.62.04.93.06-.77.88-1.04.81-1.53-.39Z"/>
      <path class="cls-66" d="m117.48,34.32c.54.8.14,1.71.27,2.56-.09.21-.18.42-.27.64-.03-.1-.05-.21-.06-.32-.2-.86-.22-1.72,0-2.58,0-.1.03-.2.05-.3Z"/>
      <path class="cls-242" d="m85.66,25.61c0-.12,0-.23,0-.35.22-.41.49-.76.94-.91.33.94-.09,1.26-.93,1.25Z"/>
      <path class="cls-53" d="m124.23,64.25c-.59.45-1.09.33-1.75.24.59-.49,1.04-.74,1.75-.24Z"/>
      <path class="cls-159" d="m83.8,39.8c-.3-.22-.6-.43-.9-.65-.11,0-.22,0-.33-.01.04-.45.26-.73.71-.55.53.21.54.72.52,1.21Z"/>
      <path class="cls-84" d="m124.85,43.33c0-1.09,0-2.17,0-3.26.26.14.29.4.32.66.19.54.19,1.09,0,1.63-.05.35.04.74-.33.97Z"/>
      <path class="cls-150" d="m105.09,66.18c-.21.1-.41.19-.62.29-.43,0-.9.21-1.24-.26.43-.56,1.03-.26,1.55-.34.1,0,.2,0,.3,0,.1.07.14.14.1.21-.03.07-.07.1-.1.1Z"/>
      <path class="cls-139" d="m133.81,61.69c.09,0,.18-.02.27-.04-.04,1.06-.46,1.54-1.5,1.06,0,0-.05-.11-.05-.11.29-.5.83-.63,1.27-.9Z"/>
      <path class="cls-127" d="m77.35,19.8c-.21,0-.42.01-.64.02-.83,0-1.66-.01-2.49-.02,1.04-.47,2.08-.48,3.13,0Z"/>
      <path class="cls-216" d="m85.95,52.38c0-.12.01-.24.02-.36.62-.28,1.07-.17,1.24.59-.4.01-.81.03-1.21.04-.02-.09-.04-.18-.05-.27Z"/>
      <path class="cls-187" d="m94.91,15.58c.12.12.23.23.35.35-.94.69-1.88.67-2.82.02.66-.61,1.46-.18,2.19-.33.1,0,.19,0,.28-.04Z"/>
      <path class="cls-99" d="m72.39,55.93c-.31.13-.62.19-.91-.06.37-.55.93-.63,1.5-.68,0,.21.01.43.02.64-.18.21-.38.24-.62.1Z"/>
      <path class="cls-131" d="m122.7,62.67c-.11-.2-.23-.41-.34-.61.25-.68.67-.78,1.24-.41,0,.21,0,.41.01.62-.3.13-.61.27-.91.4Z"/>
      <path class="cls-137" d="m90.9,12.73c-.82,0-1.65-.02-2.47-.03.37-.57,1.15-.01,1.52-.6.35.15.73.25.95.62Z"/>
      <path class="cls-182" d="m61.87,59.09l-.3,1.26c-.07.17-.17.19-.29.04-.1-.58-1.07-1.58.59-1.31Z"/>
      <path class="cls-29" d="m107.91,31.4c.35.07.74-.46.99-.12.3.41-.11.76-.37,1.07-.21-.32-.41-.64-.62-.96Z"/>
      <path class="cls-195" d="m130.67,44.61c-.72-.13-1.3-.38-1.19-1.32.38.45,1.17.51,1.19,1.32Z"/>
      <path class="cls-64" d="m63.8,29.81c.53.93.15,1.94.25,2.91-.09-.02-.18-.03-.27-.03-.29-.85-.24-1.71-.03-2.57.01-.11.03-.21.06-.31Z"/>
      <path class="cls-32" d="m104.46,23.09c0-.23,0-.46.01-.7.52.31.94.74,1.23,1.29-.29,0-.59,0-.88,0-.12-.2-.24-.4-.36-.6Z"/>
      <path class="cls-126" d="m87.82,18.81c.33.08.72-.04.95.35-.93-.1-1.9.29-2.79-.27.61-.03,1.23-.06,1.84-.08Z"/>
      <path class="cls-165" d="m63.15,60.06c.14-.74.42-1.46.27-2.24.54.26.14,1.03.65,1.29,0,.1-.02.2-.02.29-.25.29-.32.86-.9.65Z"/>
      <path class="cls-190" d="m84.11,28.83c-.11.74.25,1.55-.27,2.23-.03-.1-.05-.2-.06-.3-.2-.75-.2-1.5,0-2.25.01-.1.04-.21.07-.31.09.21.18.42.26.63Z"/>
      <path class="cls-6" d="m79.13,37.2c-.09,0-.17,0-.26,0-1.47-.37-.56-.83-.05-1.27.1.42.2.85.31,1.27Z"/>
      <path class="cls-77" d="m83.78,61.66c.11,0,.23.02.34.03-.91.5-1.83.45-2.76.04.41-.03.81-.07,1.22-.1.4,0,.8.02,1.2.03Z"/>
      <path class="cls-248" d="m84.13,18.47c.6-.35,1.19-.62,1.53.34-.55.09-1.08.07-1.53-.34Z"/>
      <path class="cls-154" d="m79.18,53.03c-.34.94-.92.68-1.52.33.51-.08.95-.54,1.52-.33Z"/>
      <path class="cls-160" d="m117.42,34.63c0,.86,0,1.72,0,2.58-.53-.57-.2-1.29-.29-1.93,0-.26.06-.5.3-.65Z"/>
      <path class="cls-85" d="m61.3,63.9c.39.24.7.57.91.99-.57-.06-1.53.27-.91-.99Z"/>
      <path class="cls-26" d="m110.06,36.87c.44.87.43,1.73,0,2.6,0-.87,0-1.73,0-2.6Z"/>
      <path class="cls-106" d="m77,38.2c0-.44,0-.88.01-1.32.46.57.61,1.24.61,1.96-.21-.21-.41-.43-.62-.64Z"/>
      <path class="cls-148" d="m69.32,21.43c-.52.43-1.03.87-1.55,1.3.11-.96.67-1.34,1.55-1.3Z"/>
      <path class="cls-77" d="m63.74,30.12c.01.86.02,1.71.03,2.57-.53-.85-.48-1.71-.03-2.57Z"/>
      <path class="cls-204" d="m61.29,60.4c.1,0,.19-.02.29-.04.06.86.63.25.95.35.09.14.1.29.03.44-.55.47-1.07.6-1.55-.1.09-.22.19-.43.28-.65Z"/>
      <path class="cls-110" d="m104.84,24.02c.39.85.44,1.7-.04,2.54,0,0-.05.03-.05.03-.18-.65-.19-1.3,0-1.95.03-.2.05-.41.08-.61Z"/>
      <path class="cls-108" d="m132.86,50.73c-.1,0-.19,0-.29,0-.43-.59.08-1.35-.32-1.95,0-.11,0-.21.02-.32,1.11.49.37,1.51.59,2.26Z"/>
      <path class="cls-163" d="m63.76,70.33c-.52.03-.91-.22-1.25-.6.51-.01,1.32-.71,1.25.6Z"/>
      <path class="cls-177" d="m119.92,25.9c.48-.02.58.5.89.71.07.06.1.13.08.2-.02.07-.05.1-.07.1-.98.33-.74-.53-.9-1Z"/>
      <path class="cls-142" d="m102.63,52.34c0-.12,0-.23-.01-.35.18-.42.49-.63.92-.66,0,.23.01.46.02.69-.31.11-.62.21-.93.32Z"/>
      <path class="cls-140" d="m73.01,23.36c.2-.4.59-.29.91-.35-.04.27.16.66-.21.75-.28.07-.54-.13-.7-.4Z"/>
      <path class="cls-158" d="m59.6,59.86c.12.49.48.87.09,1.09-.32.18-.54-.11-.41-.51.05-.14.14-.26.32-.58Z"/>
      <path class="cls-226" d="m65.01,72c-.28,1.27-.97.54-1.55.33,0,0-.02-.06-.02-.06.46-.32,1.07.12,1.51-.31l.06.04Z"/>
      <path class="cls-4" d="m83.5,23.04c-.31-.11-.62-.21-.93-.32.29-.4.67-.43,1.03-.17.19.13.07.36-.11.49Z"/>
      <path class="cls-24" d="m120.82,26.9c0-.1,0-.2,0-.3.38-.24.31-.64.34-1,.1.22.21.44.31.66.09.4.42.88-.32.98-.11-.11-.22-.23-.33-.34Z"/>
      <path class="cls-102" d="m61.01,61.05c.51.36,1.01.33,1.51-.01.09.08.14.19.16.32-.01.13-.07.23-.16.32-.52-.08-1.12.23-1.55-.33,0-.1.02-.2.04-.29Z"/>
      <path class="cls-59" d="m108.15,22.71c-.65-.17-1.27-.36-.88-1.3.29.43.59.87.88,1.3Z"/>
      <path class="cls-207" d="m94.6,39.46c-.1,0-.2-.01-.3-.02-.21-.21-.42-.41-.63-.62.9-.72.9-.02.93.64Z"/>
      <path class="cls-184" d="m93.69,53.93c-.52.01-1.04.02-1.56.03-.21-.1-.42-.21-.63-.31.73.06,1.52-.3,2.19.28Z"/>
      <path class="cls-34" d="m83.78,28.51c0,.75,0,1.5,0,2.25-.45-.75-.45-1.5,0-2.25Z"/>
      <path class="cls-12" d="m67.76,57.49c0,.25-.05.49-.27.64-.45-.54-1.03-.25-1.56-.28.52-.65,1.22-.25,1.83-.35Z"/>
      <path class="cls-34" d="m80.14,30.42c-.02.11-.04.23-.06.34-.45-.75-.45-1.5,0-2.25.02.21.03.43.05.64.3.42.15.85,0,1.27Z"/>
      <path class="cls-134" d="m106.33,28.83c0,.22,0,.45-.01.67-.19-.12-.38-.25-.57-.37-.22-.18-.21-.38-.04-.6,0-.12,0-.23.01-.35.4.01.61.23.62.65Z"/>
      <path class="cls-152" d="m93.05,42.69c0,.1,0,.2.01.3-.59,0-1.22.11-1.55-.61.56-.15,1.01.28,1.53.31Z"/>
      <path class="cls-149" d="m96.13,42.66c-.71,0-1.42,0-2.14,0,.67-.59,1.46-.19,2.19-.29-.02.1-.03.19-.05.29Z"/>
      <path class="cls-77" d="m105.7,28.53c.01.2.03.4.04.6-1.2.38-.44-.64-.64-.97.2.12.4.25.59.37Z"/>
      <path class="cls-210" d="m82.56,15.94c-.51,0-1.02,0-1.53.01-.11-.1-.21-.21-.32-.31.62,0,1.25,0,1.87,0,.1.07.13.14.09.2-.04.06-.07.09-.11.09Z"/>
      <path class="cls-145" d="m77.9,33.67c-.23.06-.45.12-.68.18-.02-.14-.11-.3-.06-.4.18-.4.47-.24.74-.11,0,.11,0,.23,0,.34Z"/>
      <path class="cls-17" d="m117.74,33.98c-.1,0-.2.01-.29.03,0-.22,0-.45-.01-.67-.1-.54.11-.75.62-.65.11,0,.22,0,.32,0-.2.43-.67.72-.63,1.28Z"/>
      <path class="cls-206" d="m81.34,52.7c-.4,1.11-.81.23-1.21,0,.4,0,.81,0,1.21,0Z"/>
      <path class="cls-81" d="m118.05,32.69c-.29.12-.5.34-.62.65-.27-.22-.41-.5-.14-.79.27-.28.54-.14.75.14Z"/>
      <path class="cls-40" d="m104.76,24.64c0,.65,0,1.3,0,1.95-.42-.65-.43-1.3,0-1.95Z"/>
      <path class="cls-17" d="m66.25,24.66c-.08.5-.26.95-.64,1.29.06-.51-.23-1.22.64-1.29Z"/>
      <path class="cls-103" d="m115.64,35.27c.07.33.15.65.22.98-1.2.02-.3-.93-.57-1.34.12.12.23.24.35.36Z"/>
      <path class="cls-176" d="m120.2,32.71c-.51-.02-1.03-.03-1.54-.05.53-.42,1.04-.49,1.54.05Z"/>
      <path class="cls-7" d="m125.17,42.36c0-.54,0-1.08,0-1.63.42.54.42,1.09,0,1.63Z"/>
      <path class="cls-116" d="m101.36,20.8c.22.21.44.41.67.62-.54.04-1.03-.03-1.24-.67.19.02.38.03.57.05Z"/>
      <path class="cls-45" d="m72.08,23.68c.11,0,.23,0,.34.01-.23.42-.54.75-.96.97-.18-.19-.2-.41-.14-.65.18-.28.39-.49.75-.34Z"/>
      <path class="cls-250" d="m71.47,24c0,.22,0,.44,0,.67-.2.22-.4.43-.59.65,0,0-.04-.04-.04-.04-.24-.66-.06-1.11.62-1.28Z"/>
      <path class="cls-100" d="m80.45,12.75c-.04.45-.25.77-.64.98-.02-.49-.03-.98.64-.98Z"/>
      <path class="cls-177" d="m121.14,27.24c.35-.24.3-.62.32-.98.36.31.39.7.15,1.07-.12.19-.34.08-.47-.09Z"/>
      <path class="cls-151" d="m62.2,69.42c-.27.12-.28.38-.32.64-.34-.3-.45-.73-.15-1.03.18-.18.38.16.47.4Z"/>
      <path class="cls-8" d="m120.49,62.95c.11.09.22.19.33.28-.19.03-.39.05-.58.08-.12.07-.24.07-.35,0,0,0,.02-.04.02-.04.11-.11.22-.21.33-.32.08-.11.17-.11.25,0Z"/>
      <path class="cls-144" d="m86.87,43.3c.02-.11.04-.22.05-.33.19.15.2.26-.05.33Z"/>
      <path class="cls-74" d="m119.89,63.31c.12,0,.24,0,.35,0-.12.21-.24.23-.35,0Z"/>
      <path class="cls-18" d="m117.17,42.34c.39-.74.78-1.48,1.16-2.22.11.2.23.4.35.6.03.72.42,1.21.93,1.64.1.1.2.21.3.31.23.42.17.99.63,1.29.46.42.62.98.61,1.6.34,1.19.5,2.39,0,3.58,0,.1-.02.21-.04.31-.72,1.91-.96,2.07-2.4,1.6-.21-.54-.42-1.08-.63-1.62-.46-.44-.46-1.02-.47-1.59-.09-.55.13-1.13-.16-1.65.02-1.29,0-2.58-.27-3.85Z"/>
      <path class="cls-252" d="m124.57,45.9c.36-.14.72-.27,1.09-.41.4.75-.79,1.78.4,2.35.55,1.18.41,2.36.02,3.54-.38,1.67-1.14,3-2.8,3.56-.36.16-.75.23-1.14.24-.35-.07-.56-.29-.68-.62,0-.09,0-.19.01-.28-.02-.46.17-.79.56-1,1.06-1.65,1.39-3.57,1.85-5.44-.12-.68.23-1.17.62-1.64.02-.1.05-.2.07-.3Z"/>
      <path class="cls-115" d="m100.16,55.55c1.5-.7,3.09-.14,4.63-.32.46.5.82,1.05,1.63.39.41-.34,1.07-.63,1.64.08.21.26.69.49,1.1.11.71-.66,1.39-.81,2.12.01.34.38.62-.09.93-.2,1.63-.55,3.27-.65,4.92-.07-2.4,1.43-5.03,1.65-7.71,1.62-.46-.39-1.08.06-1.54-.32-2.64,0-5.2-.49-7.71-1.29Z"/>
      <path class="cls-157" d="m119.9,61.68c-.6,0-1.18.1-1.27-.88-.1-1.14-.84-1.4-1.82-1.05.68-1.02,1.53-1.81,2.63-2.35,1.12-.55,2.21-1.04,3.16.2.91,1.2.14,2.17-.53,3.12-.11.1-.25.15-.4.14-.79-.25-1.43-.53-.52-1.46.25-.26.41-.74.08-.99-.52-.39-.95.03-1.33.4-.29.29-.43.66-.03.94.47.33.84.77,1.28,1.13.15.2.19.42.14.67-.06.15-.16.27-.3.34-.4.15-.76.05-1.09-.2Z"/>
      <path class="cls-14" d="m110.03,64.9c-.13.26-.36.31-.61.31-.46.38-1.08-.07-1.54.31-2.9-.46-5.66-1.29-8.02-3.21-.31-.91.16-1.22.93-1.29.31.21.62.42.93.63,2.6,1.57,5.2,3.16,8.33,3.24Z"/>
      <path class="cls-117" d="m124.49,46.2c.21.72-.32,1.13-.62,1.64-.35.16-.32.91-.87.7-.38-.15-.32-.62-.33-.99,0-.27.05-.55-.03-.79-.25-.83-.32-1.74.58-2,.98-.29.84.94,1.26,1.44Z"/>
      <path class="cls-146" d="m118.71,51.05c1.27.24,1.83-.68,2.4-1.6-.06,1.38-.83,2.43-1.49,3.53-.57-.23-.84-.7-.93-1.31,0-.21.02-.42.03-.62Z"/>
      <path class="cls-124" d="m123.6,61.65c-.46-.01-.87.11-1.24.41,0,0,.03-.1.03-.1-.2-.21-.19-.42-.02-.63.96-.55,1.96-.97,3.09-.94-.62.42-1.24.84-1.86,1.26Z"/>
      <path class="cls-50" d="m115.89,61.03c0,.42.02.83,0,1.25-.02.33.14.84-.38.85-.42,0-.51-.43-.54-.81.26-.46.37-1.05.93-1.29Z"/>
      <path class="cls-185" d="m128.26,60.08c-.32-.22-.63-.44-.95-.66-.18-.38.14-.47.33-.63.1,0,.19,0,.29,0,.62-.2.92.27,1.26.66-.19.4-.47.66-.93.65Z"/>
      <path class="cls-33" d="m129.19,59.43c-.54.04-.83-.46-1.26-.66.01-.41.21-.63.61-.65.31.76.97.63,1.56.66-.18.4-.47.65-.91.64Z"/>
      <path class="cls-192" d="m121.46,54.56c.2.13.4.26.6.39.07.22.14.45.32.61-.35.38-.88.86-1.26.5-.52-.48.25-.97.34-1.49Z"/>
      <path class="cls-219" d="m127.64,58.79c-.11.21-.22.42-.33.63-.51.22-1.02.44-1.54.66,0-1.41,1-1.25,1.87-1.29Z"/>
      <path class="cls-170" d="m118.68,51.67c.31.44.62.87.93,1.31-.11,0-.22,0-.33,0-.32.09-.73.56-.94.16-.25-.47.14-1,.34-1.47Z"/>
      <path class="cls-22" d="m119.61,42.35c-1-.12-1.78-.37-.93-1.64.36.51.85.95.93,1.64Z"/>
      <path class="cls-80" d="m122.36,61.33c0,.21.01.42.02.63-.49.22-.92.78-1.54.33-.18-.36.12-.45.32-.6h0c.2-.37.43-.67.9-.38.1,0,.21,0,.31.01Z"/>
      <path class="cls-208" d="m121.15,49.14c0-1.19,0-2.39,0-3.58.25.15.29.4.32.67.2.86.21,1.72,0,2.58-.11.11-.21.23-.32.34Z"/>
      <path class="cls-159" d="m126.08,51.39c0-1.18-.01-2.36-.02-3.54,0,0,.03-.02.03-.02.59-.02.39.46.45.78-.07.82.15,1.65-.13,2.45-.11.11-.21.22-.32.34Z"/>
      <path class="cls-125" d="m118.05,54.91c-.16-.37-.42-.75.03-1.09.33-.24.64-.24.89.13-.2.43-.51.76-.93.96Z"/>
      <path class="cls-133" d="m122.03,53.29c-.19.33-.37.66-.56,1-.46-.43-.51-.99-.14-1.4.29-.32.43.31.69.4Z"/>
      <path class="cls-58" d="m121.46,48.8c0-.86,0-1.72,0-2.58.45.86.45,1.72,0,2.58Z"/>
      <path class="cls-94" d="m126.4,51.05c0-.86,0-1.72,0-2.59.1-.13.19-.14.28.01-.12.85.29,1.77-.29,2.57Z"/>
      <path class="cls-238" d="m122.05,61.32c-.3.13-.6.25-.9.38,0-.22-.01-.44-.02-.66-.03-.6.27-.51.62-.32.1,0,.21,0,.31,0,0,.2-.01.4-.02.6Z"/>
      <path class="cls-27" d="m132.25,48.79c.56.57.19,1.3.32,1.95-.11.11-.21.22-.32.33,0-.76,0-1.52,0-2.28Z"/>
      <path class="cls-30" d="m122.38,55.56c-.49.02-.51-.23-.32-.61.41,0,.82,0,1.23,0-.3.2-.6.41-.9.61Z"/>
      <path class="cls-241" d="m126.69,48.48c-.09,0-.19,0-.28-.01-.04-.25-.07-.51-.33-.64.09-.21.19-.41.28-.62,0-.22.02-.44.03-.66.54.57.2,1.29.3,1.93Z"/>
      <path class="cls-226" d="m120.54,43.96c-.86-.08-.58-.78-.63-1.29.4.33.55.79.63,1.29Z"/>
      <path class="cls-254" d="m107.87,56.85c.52.07,1.11-.22,1.54.32-.52-.07-1.11.22-1.54-.32Z"/>
      <path class="cls-61" d="m117.77,47.82c.51.45.16,1.08.31,1.61-.4-.13-.91.63-1.19-.06-.23-.58.1-1.12.54-1.54.11-.18.22-.19.34-.01Z"/>
      <path class="cls-211" d="m117.77,47.82c-.11,0-.22,0-.34.01,0-.55,0-1.1.01-1.64.52.45.2,1.09.33,1.63Z"/>
      <path class="cls-121" d="m108.18,26.9c.38-.83.94-.68,1.54-.32.66,1.43.89,2.99,1.25,4.51.17.22.17.43,0,.65-.93-1.61-1.85-3.22-2.78-4.83Z"/>
      <path class="cls-57" d="m109.42,24.94c.48.31.89.66.96,1.29-.22,0-.44.01-.66.02-.18-.42-.7-.75-.3-1.31Z"/>
      <path class="cls-44" d="m115.91,37.17c.49.68.6,1.47.65,2.28-.6-.64-.68-1.44-.65-2.28Z"/>
      <path class="cls-95" d="m114.37,32.34c.25.14.3.38.31.64-.15.27-.39.74-.63.52-.51-.46.53-.66.32-1.16Z"/>
      <path class="cls-227" d="m110.96,31.73c0-.22,0-.43,0-.65.46.37.25.86.29,1.36-.4-.19-.26-.48-.3-.71Z"/>
      <path class="cls-5" d="m69.68,24.31c.61,1.8.55,2.26-3.25,1.77.51-1.74,2.44-.35,3.25-1.77Z"/>
      <path class="cls-217" d="m71.47,24c-.4.32-.56.78-.62,1.28-.82-.85.04-1.68.11-2.49.04-.44.7-.06,1.03.08.4.16.21.52.1.82-.21.11-.41.22-.62.32Z"/>
      <path class="cls-214" d="m64.68,60.71c.62-.32,1.24-.64,1.85-.96.32.82-.83,1.63-.63,1.73,1.31.7.07,1.09-.36,1.8,2.9-.06,5.51.09,8.12.33.05.29-.11.43-.32.55-.21.07-.43.08-.65.08-.63-.02-1.26-.01-1.83.33-.71.19-1.41.42-2.16.33-.72.24-1.44.24-2.16,0-1.09-.11-2.2-.15-3.09-.97-.59-.76-.39-1.68-.46-2.55.32-.89.99-.83,1.69-.68Z"/>
      <path class="cls-224" d="m63.14,61.35c.62.79.17,1.72.31,2.58-.54.05-.81-.46-1.23-.65-.04-.57.02-1.11.31-1.61,0-.1,0-.21,0-.31.2-.19.41-.2.62,0Z"/>
      <path class="cls-186" d="m70.85,64.57c.32-1.17,1.24-.43,1.87-.64.07.82-.74.23-.93.64-.31.08-.63.52-.94,0Z"/>
      <path class="cls-198" d="m71.78,64.57c.31-.21.62-.42.93-.64.21.01.42.03.63.04.15.07.32.13.4.31.03.13-.02.22-.13.28-.61,0-1.22,0-1.83,0Z"/>
      <path class="cls-168" d="m66.53,64.9c.72,0,1.44,0,2.16,0-.72.5-1.44.5-2.16,0Z"/>
      <path class="cls-249" d="m73.61,64.56c0-.1.01-.21.02-.31.52-.43,1.03-.26,1.55.02,0,.1,0,.2,0,.3-.52,0-1.04,0-1.56,0Z"/>
      <path class="cls-214" d="m77.63,62.6c-.31.11-.62.21-.92.32.02-.36.04-.71.07-1.12-.56-.11-1.86.99-1.42-.88.04-.18-.43-.71-.69-.73-1.43-.1-.53-.87-.43-1.42.28-.45.7-.58,1.18-.55,1.7.7,3.58.01,4.46-1.57.44-.23.91-.23,1.38-.23.4,0,.8.03,1.16.23.54.68-.09.91-.45,1.17-.95.67-1.84,1.43-2.82,2.05-.35.23-.76.38-.91.85-.32.59-1.05,1.03-.62,1.89Z"/>
      <path class="cls-179" d="m70.79,60.35c.05.54-.24.67-.65.68-.46.01-.82-.1-.81-.68,0-.47.23-.96.63-.96.45,0,.62.59.83.96Z"/>
      <path class="cls-205" d="m75.47,58.45c-.41.11-.82.22-1.23.32-.39-.17-.61-.47-.61-.92.1-.03.2-.06.3-.09.49-.32.99-.41,1.52-.07.2.25.21.5.03.76Z"/>
      <path class="cls-143" d="m75.17,64.28c-.52,0-1.03-.02-1.55-.02-.1-.09-.19-.19-.29-.28.1-.12.21-.24.31-.36.31,0,.61.02.92.03.34.6,1.41-.14,1.52.89-.31-.09-.62-.18-.92-.26Z"/>
      <path class="cls-82" d="m67.47,59.09c.2,0,.4,0,.59,0,.13.27.36.33.62.33-.54.6-1.2.46-1.85.32.12-.31.34-.53.64-.65Z"/>
      <path class="cls-83" d="m78.87,59.74c1.23-.97,2.47-1.94,3.7-2.91-.11-.25.03-.39.19-.52.23-.15.48-.27.69-.45.28-.24.56-.5.95-.54.78.38,1.73-.03,2.47.55h0c.46.39,1.08-.07,1.54.32,0,.1,0,.2.01.31.51.75,1.03,1.51,1.54,2.26-.41,0-.82,0-1.23,0-.32-.2-.61.08-.91.08-1.05.08-2.1.02-3.15.03-.4,0-.79-.02-1.18-.11-1.5.22-2.97.53-4.32,1.29-.32.12-.38-.03-.31-.32Z"/>
      <path class="cls-172" d="m92.44,54.28c2.58,1.27,4.69,3.17,6.48,5.46.47.74.5,1.41-.31,1.93-2.44-1.96-5.12-3.45-8.02-4.51.63-1.15,1.43-1.2,2.37-.42.19.16.41.37.62.39.42.04.99.27,1.2-.31.22-.61-.49-.53-.71-.82-.48-.65-2.03-.16-1.64-1.71Z"/>
      <path class="cls-21" d="m86.88,55.89c-.95.05-1.88-.05-2.8-.3-.62.36-1.27.49-1.95.21-.16-.08-.27-.21-.32-.39-.02-.18.03-.35.14-.49,1.22-.27.66-1.6,1.23-2.25.62,0,1.23,0,1.85,0,0,.37.03.73,0,1.1-.1,1,.13,1.65,1.28,1.48.44-.06.86-.03.57.65Z"/>
      <path class="cls-21" d="m88.42,56.21c-.52-.08-1.11.2-1.54-.33.51.14,1.13-.33,1.54.33Z"/>
      <path class="cls-2" d="m87.59,53.66c.21,0,.37.06.29.25-.04.11-.19.22-.31.25-.17.04-.29-.1-.23-.26.04-.11.19-.18.26-.24Z"/>
      <path class="cls-202" d="m98.62,61.67c.37-.6.31-1.27.31-1.93.82.12,1.24.85,1.85,1.3-.33.41-.86.67-.93,1.29-.41-.22-.82-.44-1.23-.65Z"/>
      <path class="cls-101" d="m105.09,66.18c0-.1,0-.21,0-.31,1.01.13,2.08-.3,3.05.29-1.02,0-2.04.02-3.05.03Z"/>
      <path class="cls-15" d="m107.87,65.53c.44-.52,1.02-.24,1.54-.31,0,.11,0,.22,0,.33-.51,0-1.02-.01-1.53-.02Z"/>
      <path class="cls-38" d="m82.56,15.94c0-.1.02-.19.03-.29,1.04-.16,1.76-1.05,2.75-1.34.02.28.06.54.34.68-.41.22-.83.44-1.24.66-.43.46-.88.86-1.56.6-.11-.1-.21-.21-.32-.31Z"/>
      <path class="cls-54" d="m81.34,14.33c-.21.1-.37.24-.43.2-.15-.1-.33-.26-.37-.42-.06-.29.17-.35.37-.25.15.08.25.27.43.47Z"/>
      <path class="cls-138" d="m121.16,61.69c-.11.2-.21.4-.32.6-.1.11-.21.22-.31.33-.21-.32-.42-.63-.62-.95.42,0,.84.01,1.25.02Z"/>
      <path class="cls-123" d="m120.49,62.95c-.08,0-.17,0-.25,0,.09-.1.18-.2.27-.3.01.1,0,.2-.02.3Z"/>
      <path class="cls-233" d="m88.12,58.46c.25,0,.49.05.62.31-.05.8.3,1.72-.62,2.26-1.34,0-2.67,0-4.01,0-.3-.72-.84-1.38-.62-2.26.22-.38.59-.31.92-.31.55.37,1.25.19,1.84.76.77.74,1.2-.57,1.86-.76Z"/>
      <path class="cls-169" d="m78.87,59.74c.1.11.21.22.31.32-.31.21-.62.43-.93.64-.31-.68.36-.68.62-.96Z"/>
      <path class="cls-156" d="m76.71,34.63c-.49-1.5-.5-3.01,0-4.51,0,1.5,0,3.01,0,4.51Z"/>
      <path class="cls-93" d="m77.91,30.11c0,.75,0,1.51,0,2.26-.44-.75-.44-1.51,0-2.26Z"/>
      <path class="cls-113" d="m76.71,27.22c.2.1.41.21.61.31,0,.11,0,.22,0,.33-.5.28-.12,1.01-.61,1.29,0-.64,0-1.29,0-1.93Z"/>
      <path class="cls-47" d="m93.37,18.85c-1.61-.68-3.29-.15-4.94-.32,0-.32,0-.64,0-.96,2.81-.16,5.41-1.86,8.33-1.24.41.21.82.42,1.24.64.3,1.61-1.36,1.13-1.85,1.89-.46.4-.98.35-1.5.19-.42-.11-.88.1-1.27-.19Z"/>
      <path class="cls-247" d="m96.17,19.48c-.54-.04-1.12.2-1.58-.27.52-.28,1.03-.3,1.54,0,0,.09.02.18.04.27Z"/>
      <path class="cls-212" d="m96.13,19.2c-.51,0-1.03,0-1.54,0,0,0,.02-.05.02-.05-.11-.06-.14-.13-.11-.2.03-.07.07-.1.1-.1.51,0,1.03,0,1.54,0,0,.12,0,.24-.01.36Z"/>
      <path class="cls-179" d="m96.76,16.32c-.05.48-.35.69-.74.55-1.44-.49-2.64-.71-4.01.64-.55.53-2.35.42-3.57.05-.81-.27-1.89.63-2.47-.63,2.18-.16,4.27-.97,6.47-.99.94,0,1.88-.01,2.82-.02.53.02,1.06.01,1.5.4Z"/>
      <path class="cls-92" d="m82.88,16.26c.53-.17.95-.64,1.56-.6.57.44,1.12.86-.1,1.14-.56.13-1.28.1-1.15,1.06-.54.06-1.06.04-1.53-.3.26-.59.72-.97,1.22-1.3Z"/>
      <path class="cls-225" d="m90.58,23.02c.63-.46,1.25-.47,1.88,0-.63,0-1.25,0-1.88,0Z"/>
      <path class="cls-188" d="m132.24,54.93c.6.58.49,1-.26,1.28.09-.43.17-.85.26-1.28Z"/>
      <path class="cls-51" d="m82.3,25.62c.52.9.28,1.53-.62,1.93.21-.64.42-1.29.62-1.93Z"/>
      <path class="cls-88" d="m80.14,30.42c0-.42,0-.85,0-1.27.76.08.76.16,0,1.27Z"/>
      <path class="cls-67" d="m133.81,61.69c-.26.56-.77.72-1.27.9-.05-1.02.63-.93,1.27-.9Z"/>
      <path class="cls-189" d="m63.14,61.35c-.21,0-.41,0-.62,0,0-.11,0-.21,0-.32,0-.11,0-.22,0-.33.21-.22.42-.44.62-.65.3-.22.6-.43.9-.65-.04.56.44.85.62,1.3-.44.41-1.14.13-1.54.65Z"/>
      <path class="cls-36" d="m81.95,54.91c0,.11,0,.23,0,.34-1.4.88-2.99.13-4.44.54-.27.04-.53.01-.77-.14-.2-.24-.22-.49-.02-.74.51,0,1.03,0,1.54,0,.72,0,1.44,0,2.16,0,.51,0,1.03,0,1.54,0Z"/>
      <path class="cls-215" d="m64.95,71.96c-.41.6-.99.26-1.51.31.43-.48,1-.21,1.51-.31Z"/>
      <path class="cls-18" d="m83.51,56.21c-.14.28-.38.3-.64.27-.54-.04-1.08-.04-1.54.32-.51.03-1.02.06-1.54.09-1.22.63-2.53.87-3.88.85-.42-.29-1-.15-1.36-.58-.54-.76-2.01.27-2.16-1.23.21-.03.41-.07.62-.1.21,0,.41,0,.62,0,.46-.36,1.05-.26,1.56-.43.16-.01.32-.01.48,0,1.19.44,2.39.22,3.59.02.59-.03,1.18-.05,1.77.02.74.58,1.88-.27,2.48.77Z"/>
      <path class="cls-97" d="m75.16,55.51c-.45.4-.98.44-1.53.33.23-.99,1-.46,1.54-.6.11.06.14.12.11.18-.04.06-.07.09-.11.09Z"/>
      <path class="cls-25" d="m75.16,55.51c0-.09,0-.18,0-.27.48-.31,1-.36,1.54-.32,0,.2,0,.4,0,.6-.39.35-.81.22-1.22.09-.11-.03-.22-.06-.33-.1Z"/>
      <path class="cls-37" d="m89.65,19.13c.56-.53,1.24-.19,1.86-.27.1.06.14.12.11.18-.03.07-.06.1-.09.1-.63,0-1.25,0-1.88-.01Z"/>
      <path class="cls-171" d="m91.53,19.14c0-.09-.01-.19-.02-.28.52,0,1.03,0,1.55-.01.1.06.13.13.1.2-.03.07-.06.1-.1.1h-1.54Z"/>
      <path class="cls-183" d="m93.06,19.15c0-.1,0-.2,0-.3.1,0,.21,0,.31,0,.41,0,.82,0,1.23,0,0,.1,0,.2,0,.3-.52,0-1.03,0-1.55,0Z"/>
      <path class="cls-111" d="m74.55,57.17c.42.04.89-.13,1.24.27-.02.2-.13.31-.32.34-.51,0-1.02,0-1.54-.02.02-.41.24-.59.62-.6Z"/>
      <path class="cls-98" d="m121.75,60.71c-.25,0-.49.06-.62.32-.53.02-.69-.59-1.13-.73-1.38-.46-1.16-1.05-.27-1.95.68-.69,1.31-.6,2.05-.38-.24.65.47,1.58-.57,1.99-.11.04.21.52.53.75Z"/>
      <path class="cls-147" d="m75.47,57.78c.11-.11.21-.23.32-.34,1.36.02,2.62-.77,4.01-.55-.11,1-1.92,2.34-2.95,2.07-.45-.12-1.03-.01-1.37-.51,0-.22,0-.45,0-.67Z"/>
      <path class="cls-116" d="m81.33,56.8c.36-.94.94-.69,1.54-.32-.1.12-.2.24-.3.36-.41-.01-.83-.02-1.24-.04Z"/>
      <path class="cls-3" d="m88.12,58.46c-1.03,1.72-1.03,1.73-2.56.54-.39-.3-.6.06-.9.12-.9.2-.2-.41-.24-.66,1.23,0,2.47,0,3.7,0Z"/>
      <path class="cls-91" d="m83.51,56.21c-.69-.79-1.78.1-2.49-.64.31-.26.63-.22.96-.05.7.02,1.4.03,2.1.05-.09.32-.3.5-.57.63Z"/>
      <path class="cls-60" d="m81.98,55.53c-.32.02-.64.03-.96.05-.62,0-1.23,0-1.85,0-.63.2-1.25.26-1.87-.04,1.52-.64,3.1-.16,4.64-.28,0,.09.01.18.03.27Z"/>
      <path class="cls-112" d="m77.3,55.53c.62.01,1.25.03,1.87.04-1.22.5-2.45.45-3.68.03.41-.03.82-.06,1.22-.09.2,0,.39.02.59.02Z"/>
    </g>
  </g>
</svg>