<?xml version="1.0" encoding="UTF-8"?>
<svg id="Capa_2" data-name="Capa 2" xmlns="http://www.w3.org/2000/svg" viewBox="0 0 255.76 256.2">
  <defs>
    <style>
      .cls-1 {
        fill: #129e9e;
      }

      .cls-2 {
        fill: #caced0;
      }

      .cls-3 {
        fill: #0e7a87;
      }

      .cls-4 {
        fill: #fffcf7;
      }

      .cls-5 {
        fill: #12a7a3;
      }

      .cls-6 {
        fill: #fff;
      }

      .cls-7 {
        fill: #119296;
      }

      .cls-8 {
        fill: #fbb429;
      }

      .cls-9 {
        fill: #fdfefe;
      }

      .cls-10 {
        fill: #119497;
      }

      .cls-11 {
        fill: #c8cacc;
      }

      .cls-12 {
        fill: #cacdcf;
      }

      .cls-13 {
        fill: #119799;
      }

      .cls-14 {
        fill: #109397;
      }

      .cls-15 {
        fill: #053e42;
      }

      .cls-16 {
        fill: #14b8ae;
      }

      .cls-17 {
        fill: #108f94;
      }

      .cls-18 {
        fill: #fdfcf7;
      }

      .cls-19 {
        fill: #fe8389;
      }

      .cls-20 {
        fill: #119698;
      }

      .cls-21 {
        fill: #14b2aa;
      }

      .cls-22 {
        fill: #feffff;
      }

      .cls-23 {
        fill: #18beb2;
      }

      .cls-24 {
        fill: #0e7986;
      }

      .cls-25 {
        fill: #11999a;
      }

      .cls-26 {
        fill: #c8cbcd;
      }

      .cls-27 {
        fill: #0e7886;
      }

      .cls-28 {
        fill: #0f858e;
      }

      .cls-29 {
        fill: #fcfefe;
      }

      .cls-30 {
        fill: #fffbf7;
      }

      .cls-31 {
        fill: #15bdb1;
      }

      .cls-32 {
        fill: #fdfcf8;
      }

      .cls-33 {
        fill: #19bdb0;
      }

      .cls-34 {
        fill: #109095;
      }

      .cls-35 {
        fill: #c7cbcd;
      }

      .cls-36 {
        fill: #65d3cc;
      }

      .cls-37 {
        fill: #12a2a0;
      }

      .cls-38 {
        fill: #d1757d;
      }

      .cls-39 {
        fill: #119d9d;
      }

      .cls-40 {
        fill: #12a09f;
      }

      .cls-41 {
        fill: #10858e;
      }

      .cls-42 {
        fill: #0f7a88;
      }

      .cls-43 {
        fill: #fefffe;
      }

      .cls-44 {
        fill: #12a8a3;
      }

      .cls-45 {
        fill: #fcfdfe;
      }
    </style>
  </defs>
  <g id="Capa_1-2" data-name="Capa 1">
    <g id="Capa_2-2" data-name="Capa 2">
      <g>
        <path class="cls-15" d="m.03,120.04c-.12-13.54,3.58-26.34,8.29-38.78,6.57-17.36,16.74-32.64,30.26-45.3C58.12,17.65,81.01,5.75,107.85,1.92c3.97-.57,7.89-.7,11.84-.9,1.92-1.06,4.13.13,6.06-.79,1.35,0,2.71,0,4.06,0,1.59.87,3.49-.21,5.06.79,26.04.77,49.09,9.86,69.7,25.41,24.76,18.68,40.47,43.32,47.56,73.47,1.62,6.89,3,13.85,2.63,21,1,1.57-.08,3.47.79,5.06,0,1.35,0,2.71,0,4.06-.87,1.59.21,3.49-.79,5.06-.5,17.35-4.49,33.78-13.01,49-1.9-1.71-1.15-4.28-2.08-6.3-.82-6.85-1.27-13.75-2.26-20.58-5.4-28.63-19.52-51.88-42.9-69.41-2.87-2.48-6.08-4.45-9.31-6.4-1.52-.91-3.22-1.73-3.8-3.66.55-3.3,3.32-4.79,5.52-6.73,5.97-5.25,12.33-10.12,16.18-17.36,1.73-3.25,3.18-6.59,3.27-10.34.11-4.88-1.51-6.65-6.38-6.9-9.64-.51-16.07,5.37-22.18,11.56-3.95,4.01-7.49,8.44-10.98,12.87-2.37,3-5.22,4.03-8.77,2.76-4.48-1.6-9.52-1.71-13.34-5.04-.88-2.34,1.14-3.44,2.11-4.99.5-4.34-1.65-6.15-5.86-4.91-3,1.52-4,4.93-6.52,6.9-4.33-.09-8.29-1.26-11.73-4-.87-2.38,1.15-3.49,2.2-5.04,1.81-1.82.73-3.31-.62-4.66-1.41-1.41-2.89-2.98-5-.97-3,1.97-4.17,5.6-7,7.72-6.99-.74-13.42-3.55-20.07-5.53-2.68-.8-5.29-2.12-8.2-1.14-2.17,2.4.7,2.74,1.64,3.44,7.32,5.48,15,10.47,22.3,15.99,1.35,1.02,3.49,1.64,2.89,4.1-1.21,1.71-3.14,1.65-4.9,2.02-15.94,3.34-30.8,9.19-43.89,19.07-1.2,1.09-2.72,1.76-3.89,2.91-2.01,1.49-4.03,2.98-5.85,4.73-18.12,16.12-29.53,36.08-34.34,59.84-1.42,8.14-2.58,16.31-2.68,24.59-.25,1.96.15,4.02-.87,5.87-.2.2-.41.41-.61.61-3.21-2.27-3.73-6.05-4.99-9.32C3.9,162.97.02,149.88.03,135.95c.5-1.98.55-3.95-.03-5.92v-4.06c.58-1.97.53-3.95.03-5.92Z"/>
        <path class="cls-27" d="m238.56,155.95c1.48,7.26,1.89,14.64,2.34,22.02.82,2.3-.23,4.78.65,7.07-30.31,61.97-103.78,87.22-164.77,60.71-1.14-1.54-.43-2.98.62-4,4.54-4.4,7.03-10.14,10.32-15.35.98-1.38.68-3.1,1.19-4.61,2.18-3.8,7.53-5.15,7.96-10.3.88-2.06.45-4.27.7-6.4.1-1,.4-1.95.79-2.88,2.48-5.94,1.74-7.96-4.27-10-5.48-1.86-10.6-3.97-13.21-9.71-.65-1.42-2.26-1.88-3.68-2.4-2.78-1.02-4.89-2.78-6.07-5.55.71-3.48-1.32-2-2.79-1.52-1.64.3-3.47.65-4.89-.06-4.4-2.19-8.18-1.16-11.79,1.64-1.41,0-2.83-.27-4.23.19-1,.12-1.96.03-2.81-.58-.32-.36-.57-.77-.74-1.23-.91-2,.58-4.59-1.56-6.28-3.89-.66-5.12-3.21-4.53-6.96-6.57,3.09-7.9,2.68-10.19-2.92-.18-1.48-.13-2.96-.12-4.43,1.59-8.73,10.33-12.04,19.69-7.1.54-4.41,4.57-5.98,6.9-8.93,2.55-3.23,5.04-6.28,8.13-9.1,3.97-3.63,8.09-4.81,13.28-4.15-3.31-2.12-3.78-4.29-.61-6.7,1.78.04,3.46-.47,5.13-1.01,3.16-.23,2.1,3.8,4.45,4.38.79.4,1.52.9,2.01,1.66.87,2.03,2.59,3.35,4.1,4.85,1.26,1.7,2.86,2.92,4.89,3.53,1.91.73,3.58,1.83,4.98,3.33.93,1.21,2.03,2.28,2.72,3.67.26,1.2.7,2.24,2.11,2.49,1.74.63,2.94,1.96,4.22,3.19,1.51,1.55,2.61,3.36,3.52,5.3.52,1.15.85,2.33.8,3.6-1.48,4.58-1.99,9.28-1.66,14.09.4,5.69,5.79,11.8,11.57,13.05,1.95.09,3.91.29,5.71-.74,7.53-2.17,12.59,1.2,13.48,9.02.17,1.52.91,2.81,1.35,4.21-.74,2.07.42,2.96,2.19,3.47,1.31,4.19,1.18,8.21.28,12.62-1.36,6.68,2.15,12.85,3.78,19.2.16.63.55,1.2.83,1.8,2.95,6.37,6.94,6.84,11.86,1.58,2.65-2.83,3.26-6.9,6.09-9.57,1.67-1.68.9-3.97,1.44-5.93.78-3.29,4.17-4.3,5.9-6.76,1.26-1.7.62-3.36-.12-5.02-2.38-6.17-.98-11.56,3.39-16.32,1-1.78,4.8-.19,4.4-3.67.66-2.48,2.59-4.24,3.59-6.54.97-2.23.83-3.6-2.07-3.34-1.91.17-3.98.2-4.4-2.14-.41-2.29,1.72-3.14,3.34-3.78,4.37-1.72,7.91-4.96,12.34-6.51,1.03-.33,2.13-.47,2.99-1.2,2.21-1.85-.11-4.85,1.73-6.79,2.02-1.73,4.31-1.59,6.68-1.04,6.14,3.23,10.26,7.79,9.95,15.24-1.42,2.52-4.02,4.14-5.21,6.66,1.58-1.69,2.48-4.47,5.69-4.28,1.44.48,1.68,2.47,4.12,2.83-.49-6.74,4.09-10.58,8.47-14.51,2.04-1.83,4.32-3.17,7.04-1.08Z"/>
        <path class="cls-31" d="m97.86,211.96c.14,5.64-5.18,6.83-8.13,9.94-1.09,1.54.18,3.51-.91,5.05-1.38,4.64-6.15,7.52-6.6,12.7-.08.97-1.48,1.08-2.4,1.42-2.12.8-2.54,2.78-3.03,4.68-3.76-1.75-7.64-3.27-11.03-5.74-1.76-1.86-.98-4.41-1.77-6.53-.51-1.94-.88-3.89-.6-5.91.19-1.71,0-3.38-.54-5.01-.51-5.44-2.01-10-6.95-13.57-4.6-3.32-6.81-9.04-8.85-14.21-1.66-4.19-.93-8.9,2.26-12.69,1.2-1.44,1.53-3.01.62-4.74-.39-.83-.75-1.66-.61-2.61.28-.7.63-1.26,1.52-.81,5.34-7.19,12.05-1.2,18.06-1.87,1.21,1.74-.39,2.95-.84,4.38,1.03-1.14,1.6-2.93,3.67-2.57,1.85,2.56,3.66,5.05,7.3,5.34,1.45.11,2.78,1.21,3.26,2.76,1.79,5.72,6.77,7.49,11.66,8.7,2.83.7,4.6,2.53,6.7,3.97,1.89,1.29,1.5,3.55.39,5.38-.94,1.56-2.1,2.98-2.29,4.88-1.22,2.23.24,4.8-.89,7.04Z"/>
        <path class="cls-27" d="m50.85,181.98c-4.24,6.05-4,10.03-.33,16.64,2.83,5.09,5.67,9.65,10.7,13.17,3.05,2.14,2.62,7.17,2.66,11.15,1.03,1.54-.25,3.5.91,5.02-1.08,1.66.34,3.29.06,4.94.66,2.29.76,4.58-.05,6.86-11.32-6.09-21.17-14.13-29.95-23.4-7.28-7.69-13.8-16.05-18.94-25.37-.99-1.79-1.39-3.9-2.06-5.86,0,0,.14-.15.14-.15.56-2.05.67-4.09-.08-6.12-.04-8.75.98-17.37,3.1-25.85,1.75-.1,2.33,1.27,2.62,2.5,1.09,4.66,4.7,6.01,8.7,7.1,6.72,1.84,12.61,4.94,16.08,11.41,1.15.79,2.36,1.06,3.69.46.67-.18,1.25-.07,1.68.53l1.08,1.95c.72,1.67.7,3.34.01,5.02Z"/>
        <path class="cls-38" d="m241.55,185.04c-1.75-2.22-.52-4.71-.65-7.07,1.55,1.87.49,4.09.85,6.12-.02.33-.08.65-.19.95Z"/>
        <path class="cls-14" d="m64.8,239.75c.02-2.29.03-4.57.05-6.86,1.83,2.18.62,4.74.91,7.12-.33-.05-.65-.13-.96-.26Z"/>
        <path class="cls-19" d="m.03,120.04c1.25,1.98,1.25,3.95-.03,5.92,0-1.97.02-3.95.03-5.92Z"/>
        <path class="cls-19" d="m125.75.23c-1.86,1.52-4.03.6-6.06.79,1.83-1.7,4.01-.75,6.06-.79Z"/>
        <path class="cls-19" d="m0,130.02c1.27,1.97,1.28,3.94.03,5.92,0-1.97-.02-3.95-.03-5.92Z"/>
        <path class="cls-19" d="m255.55,125.96c-1.41-1.51-.66-3.36-.79-5.06,1.61,1.48.8,3.33.79,5.06Z"/>
        <path class="cls-19" d="m134.87,1.02c-1.71-.14-3.55.62-5.06-.79,1.73-.01,3.58-.82,5.06.79Z"/>
        <path class="cls-19" d="m254.76,135.09c.14-1.71-.62-3.55.79-5.06.01,1.73.82,3.58-.79,5.06Z"/>
        <path class="cls-6" d="m201.92,152.96c-.34,2.36,2.76,5.29-1.15,7.07-2.23-.46-3.03-2.43-4.14-4.02-12.06-17.21-23.75-34.67-35.72-51.94-1.14-1.64-1.63-4.76-4.97-3.43-6.39,3.39-11.15,8.84-16.68,13.31-2.95,2.39-5.78,4.97-8.65,7.49-1.5,1.35-2.88,2.83-4.37,4.2-2.01,1.36-3.82,2.95-5.28,4.9-5.8,3.4-2.1,7.58-.94,11.54.96,2.61,2.08,5.15,2.92,7.8.89,2.8.65,5.31-2.1,6.79-3.03,1.62-4.38-.79-5.74-2.87-.78-2.1-1.01-4.5-3.15-5.87-1.08-1.61-2.16-3.21-3.25-4.82-.92-1.56-1.31-3.75-3.93-3.26-.8.2-1.35,1.48-2.46.24-1.2-1.35.36-2.04.41-3.05.02-1.88-1.81-2.09-2.77-3.08-1.72-1-2.95-2.79-5.09-3.1-1.27-1.76-3.24-2.64-4.92-3.89-1.34-1.63-4.38-1.83-4.07-4.84.3-.64.4-1.39.95-1.91,1.78-1.54,3.71-1.01,5.66-.43,3.04.9,6.08,1.9,8.86,3.34,5.01,2.59,8.51,1.26,12.06-2.87,9.43-10.96,19.05-21.76,28.39-32.79,2.14-3.23-.9-4.08-2.6-5.24-15.22-10.39-30.32-20.94-45.63-31.2-2.9-1.94-5.59-4.16-8.52-6.05-1.35-.87-2.86-1.87-2.36-3.95,2.08-1.68,4.21-.95,6.44-.27,7.88,2.43,15.8,4.75,23.7,7.11,3.73-.34,6.94,1.01,9.94,3.04,3.85,1.79,7.84,3.17,12.02,3.99,3.79-.54,7.13.43,9.98,3,4.64,2.6,9.97,3.14,14.88,4.97,2.58.96,4.38-.55,6.2-2.77,6.23-7.62,11.98-15.77,20.53-21.14,3.82-2.4,7.83-3.88,12.5-3.96,9.22-.16,9.84,4.02,8.58,10.9-1.43,7.84-6.15,14.16-12.25,19.58-4.55,4.04-9.77,7.42-13.46,12.41-2.49,5.39,1.22,9.72,2.48,14.46.15,1.82.85,3.47,1.52,5.14,1.17,3.4,1.86,6.94,3.17,10.3,1.17,3.78,2.47,7.51,3.71,11.26.79,3.66,2.08,7.18,3.31,10.71,2.04,7.03,4.33,13.99,6.48,21,.09.8-.18,1.52-.5,2.23Z"/>
        <path class="cls-27" d="m142.93,88.05c-10.39,12.08-20.58,24.32-31.54,35.9-2.05,2.17-3.6,3.33-6.91,1.56-4.08-2.18-8.86-2.99-13.16-4.83-1.83-.78-3.06-.62-4.48.41-1.19-.88-1.39-2.37-2.19-3.49-.78-3.13-1.39-6.16-3.36-9.05-2.33-3.43-6.63-3.18-9.11-6.13-.82-.98-2.72.42-2.78,1.86-.19,4.76-4.55,6.25-6.94,9.25-1.06,1.33-3.1,1.85-3.73.22-1.18-3.07-3.93-3.82-6.14-5.45-3.45-2.54-3.48-5.05.06-7.46,2.87-1.95,5.82-3.97,9.57-3.66,1.7.14,2.62-.81,3.83-1.78,2.67-2.14,5.28-4.76,9.12-4.47,2.25.17,4.54.68,3.42,3.92-.39,1.14-1.95,2.35-.04,3.32,1.51.77,2.88-.01,3.99-1.19,1.19-1.27,2.19-2.58.97-4.38-1.46-2.13-3.63-3.35-5.83-4.52-2.05-1.03-4.16-.94-6.29-.33-1.03.34-2.06.72-3.17.72-.65-.07-1.26-.28-1.88-.45-1.45-.35-3,.9-4.41-.25-.57-.44-.76-1.09-.96-1.73,13.88-10.98,29.74-17.3,47.13-20.06.92-.15,1.77-.73,2.65-1.11,2.27-.51,3.73,1.09,5.29,2.18,8.12,5.69,16.26,11.34,24.27,17.18,1.3.94,2.93,1.72,2.62,3.81Z"/>
        <path class="cls-31" d="m60.96,86.04c.29.31.58.61.88.92.43,1.11,1.49,1.47,2.4,2.01,2.31,4.16,2.25-1.19,3.59-.9,1-.38,2-.76,2.99-1.13,2.32-.63,4.65-.65,6.97.01,2.39.46,4.3,1.92,5.83,3.58,1.23,1.33,3.69,3.67,2.48,4.76-1.88,1.69-3.05,4.74-6.34,4.74-1.82,0-3.32-.46-4.27-2.01-1.17-1.92,1.06-1.99,1.72-2.92.46-.63,1.46-1.22.74-2.06-.46-.55-1.38-.87-2.14-.98-4.05-.56-7.97,2.09-9.03,4.53-1.29,2.96-2.18,2.26-4.11,1.89-4.62-.87-7.69,2.41-11.06,4.56-1.52.96-.59,2.51.66,3.74,2.31,2.26,7.45,1.5,7.1,6.67-.04.53,1.61.51,1.67.16.71-4.39,8.18-3.99,6.89-9.85-.35-1.58,1.08-3.17,2.49-3.28,1.87-.14,4.28.13,5.08,2.26.79,2.09,1.72,2.61,3.67,1.65.77-.38,2.26-.29,2.13.36-.83,4.44,6.72,6.07,3.68,11.16-.11.18.49.78.75,1.18,1.56,2.4-.14,3.16-1.95,3.85-1.56-.74-3.41-1.14-2.33-3.72.41-.98-.86-1.06-1.64-1.14-1.34.34-2.54,1.24-4.02.99-2.76,3.08-2.62,3.8,1.1,5.31-.52,1.2-1.74,1.75-2.71,1.58-5.95-1.02-9.41,3.28-13.54,6.13-1.08.75-2.65,1.61-2.86,2.65-.86,4.23-4.08,6.09-7.25,8.11-2.88,1.84-.87,5.33-2.65,8.36-3.41-7.52-9.3-4.37-14.3-3.87-3.38.34-4.76,3.28-4.79,6.63-.78,1.67-.72,3.34-.03,5.02,2.33,4.77,3.51,5.09,7.09,1.75.86-.8,1.48-1.99,2.83-1.51,1.6.58.96,1.8.57,2.9-1.6,4.5.92,5.19,4.52,4.85,1.4,2.54-.31,5.47,1,8.02.02.3.05.59.07.89.34.24.45.46.33.68-.12.22-.24.32-.36.32-3.78-3.47-7.2-7.37-12.05-9.5-.88-.39-1.68-1.26-2.55-1.31-6.52-.39-11.17-2.96-12.34-9.95-.07-.42-.57-.77-.88-1.15,2.63-15.35,9.17-29.04,18.06-41.62,4.82-6.81,10.09-13.33,16.92-18.35,2.16-1.05,5.46-.49,5.77-4.11-.43-2.63,2.73-1.26,3.2-2.88Z"/>
        <path class="cls-31" d="m191.74,119.16c-1.93-3.49-3.06-7.26-3.83-11.16,1.39-2.86,4.51-4.12,6.19-6.71,1.31-1.46.64-2.73-.35-3.99-1.01-1.28-2.41-2.35-2.39-4.21,1.07-2.09-.63-5.77,3.49-6.13,9.41,5.28,16.3,13.31,22.66,21.66,10.71,14.06,17.8,29.87,21.04,47.33-6.15.19-13.33,7.09-13.83,13.29-.04.49.06,1.02-.1,1.47-.48,1.37-.72,3.28-2.25,3.57-1.59.3-1.68-1.7-2.36-2.73-.54-.82-.91-1.74-1.36-2.62-.79-.4-1.46-.86-.99-1.91-.05-6.79-4.14-11.14-9.04-15.01-2.19-1.39-4.79.26-7-.96-3.1-6.74-4.97-13.88-6.74-21.05,1.67-3.18,5.15-4.69,7.06-7.64-.02-4.44-1.8-5.88-5.98-4.81-1.34.76-2.45,2.1-4.25,1.61Z"/>
        <path class="cls-11" d="m142.93,88.05c-9.17-7.64-19.42-13.8-28.94-20.96-1.04-.79-2.16-1.48-3.24-2.21-9.22-6.57-18.37-13.23-27.69-19.65-2.25-1.56-2.96-2.57-.37-4.22,6.31,6.41,14.25,10.6,21.52,15.69,12.58,8.81,25.24,17.5,38.05,25.96,2.94,1.94,2.48,3.35.67,5.4Z"/>
        <path class="cls-27" d="m194.86,86.96c-.99,1.18-2.83,1.97-1.65,4.1.71,1.28-.15,1.76-1.31,1.92-.7.1-1.38.33-2.09.37-2.03-.24-4.2,1.57-6.12-.4-2.93-3.63-3.3-8.26-4.71-12.46-.61-1.81,1.21-2.39,2.77-2.61,4.29,3.15,9.66,4.74,13.11,9.1Z"/>
        <path class="cls-8" d="m122.77,50.88c-3.63.01-6.78-1.53-9.94-3.04.63-3.69,3.25-5.88,6.02-7.95,3.85.86,6.21,3.22,7.07,7.07-1.05,1.31-2.1,2.62-3.16,3.92Z"/>
        <path class="cls-8" d="m144.77,57.87c-3.41-.72-6.81-1.5-9.98-3,.78-3.39,2.48-5.99,6.04-6.98,3.71.55,5.57,3.16,6.94,6.29-1,1.23-2,2.46-3,3.69Z"/>
        <path class="cls-4" d="m125.93,46.96c-2.36-2.36-4.71-4.72-7.07-7.07,3.12-4.34,4.68-.22,6.48,1.33,1.83,1.57,4.35,3.44.59,5.74Z"/>
        <path class="cls-30" d="m147.77,54.18c-2.31-2.1-4.63-4.19-6.94-6.29,0-.16-.05-.38.03-.48,2.44-3.07,4.21-.79,5.61.99,1.24,1.58,5.65,2.83,1.3,5.78Z"/>
        <path class="cls-42" d="m57.76,88.91c1.31.17,2.08.84,2,2.25-.09,1.64-1.2,1.1-2.09.96-2-.32-3.4,3.06-5.69.91,1.93-1.36,3.09-3.8,5.77-4.11Z"/>
        <path class="cls-38" d="m13.9,178.85c1.38,2.02,1.58,4.06.08,6.12-.03-2.04-.05-4.08-.08-6.12Z"/>
        <path class="cls-31" d="m129.7,120.94c7.71-6.82,15.39-13.68,23.17-20.42.62-.54,1.88-.34,2.84-.48,6.33,6.79,12.38,13.78,15.58,22.72-.87,1.83-2.37,2.08-4.11,1.53-1.76-.55-2.82.18-3.45,1.76-.37,1.03-.27,1.7,1.1,1.45,3.65-1.32,7.15-.52,10.63.66,3.26,1.68,4.72,4.95,6.76,7.71,4.79,6.49,9.18,13.26,13.97,19.75,1.09,1.47,2.88,2.95,1.6,5.24-4.56,2.21-8.5,5.54-13.32,7.3-.98.36-2.98.63-2.13,2.58.6,1.39,1.8.83,2.98.56,1.7-.38,3.85-1.17,4.99.61.99,1.54-.82,2.99-1.29,4.51-.81,2.6-2.94,4.32-4.2,6.61-.36,2.73-2.55,1.63-4.06,1.92-2.32.45.66.78.01,1.18-3.31,5.2-5.63,10.56-2.95,16.81.63,1.68.67,3.35-.02,5.03-1.2,2.83-4.9,3.12-6.08,5.97-1.29,2.18.37,4.79-1.01,6.95-3.7,1.77-3.16,6.22-5.66,8.95-2.15,2.35-4.47,4.07-7.27,4.82-2.79.75-4.96.72-6.69-3.32-2.56-6-3.65-12.31-5.75-18.36-.53-1.51-1.07-3.63-.42-4.82,2.54-4.64.77-9.33.81-14,.03-.48.16-.94.43-1.34.42-.6,1-1.05,1.56-1.5-.61.2-1.05.71-1.64.95-.78.32-1.53.37-2.22-.22-1.89-2.13-2.89-4.19-2.24-7.42.84-4.16-6.52-7.49-11.8-5.6-1.9,1.11-4.16-.24-6.05.88-2.09.28-3.81-.19-5.41-1.78-7.81-7.76-10.14-12-5.42-27.22,1.82-.42,2.08,1.14,2.75,2.18,1.49,1.07,1.75,4.35,4.63,2.87,2.79-1.44,2.23-3.9,1.39-6.29-.91-2.57-1.83-5.13-2.75-7.7,1.06-3.1,3.15-5.05,6.4-5.71,3.67.05,6.57-2.95,10.31-2.61,2.04.09,4.1-.14,6.11.41.46.16.88.41,1.25.72,1.11,1.34.75,3.64,2.82,4.36,2.72,1.67,5.35,2.68,8.7,1.19,3.38-1.5,6.61,1.04,9.98,1.24,1.62-.02,3.38.7,4.68-.92,1.1-1.96.62-3.25-1.6-3.8-1.53-.58-3.18-.47-4.74-.88-2.07-.39-3.16-4.76-6.47-1.07-1.07,1.2-3.36-1.75-3.93-3.52-.79-2.47-2.55-3.7-4.16-4.75.61.46,1.51,1.15,2.3,1.96.78.8.83,1.77.13,2.69-.69.92-1.6,1.09-2.63.63-1.38-.61-2.54-1.56-3.73-2.43-5.01-3.66-8.22-3.43-11.53,1.65-2.21,3.4-4.82,5.29-8.85,5.22-3.52-.9-5.16-2.76-3.26-6.41.17-3.17,3.03-3.65,5.01-5.01,2.57-.08,3.1-2.2,3.98-3.98Z"/>
        <path class="cls-11" d="m197.8,160.85c-5.11-9.2-11.99-17.19-17.72-25.96-1.35-2.06-2.98-3.94-4.48-5.9-2.26-1.52-4.15-3.32-4.77-6.12-3.3-7.01-8.73-12.59-12.81-19.08-.78-1.24-1.54-2.5-2.31-3.76,1.7-3.62,2.86-1.71,4.23.32,5.92,8.76,11.89,17.47,17.86,26.19,7.64,11.16,15.31,22.32,22.96,33.47-.66,1.43-1.89.84-2.96.83Z"/>
        <path class="cls-31" d="m188.61,208.42c-1.18,3.53-2.43,7.46-3.81,11.34-.55,1.55-1.72,2.56-3.48,1.83-1.45-.6-2.02-2.13-1.4-3.33,1.99-3.89,1.01-9.29,5.95-11.7.67-.32,1.01-1.48,1.97-1.13,1.28.46.76,1.62.77,2.98Z"/>
        <path class="cls-45" d="m195.71,185.9c-.69.07-1.33-.56-1.54-1.33-.09-.36.61-1.32.99-1.34,2.86-.16,5.25-1.52,7.63-2.87,1.2-.68,1.93-.13,2.41.77.54,1.01-.49,1.43-1.13,1.68-2.67,1.06-5.39,2-8.37,3.09Z"/>
        <path class="cls-6" d="m105.65,224.54c-2.76,3.31-6.69,1.95-9.88,3.26-.34.14-1.32-.82-1.72-1.45-.41-.63.05-1.4.79-1.32,3.63.4,7.17-.92,10.81-.49Z"/>
        <path class="cls-9" d="m217.69,167.02c.33.64.66,1.28.99,1.91-2.95,1.44-3.81,4.77-6.16,6.75-.51.43-.85,1.5-1.9.65-.95-.77-.47-1.37.15-1.93,2.52-2.26,2.78-6.63,6.91-7.38Z"/>
        <path class="cls-9" d="m123.23,215.88c-3.31,2.26-6.31,4.24-9.23,6.33-.71.51-1.12.43-1.53-.17-.26-.38-.6-.88-.53-1.27.21-1.27,9.01-5.33,11.3-4.9Z"/>
        <path class="cls-9" d="m71.72,173.88c-1.92.69-1.8,3.11-3.37,4.01-.66.38-.07,2.43-1.7,1.32-.99-.67-.64-1.45-.26-2.51.61-1.71,2.61-2.6,2.5-4.62,1.49-.6,2.23-3.05,4.54-1.8-.19,1.37-2.06,1.99-1.7,3.61Z"/>
        <path class="cls-6" d="m90.7,150.26c1.36-2.81,4.07-4.48,6.1-6.72.71-.78,1.94-.93,2.64-.16.93,1.03-.25,1.78-.92,2.33-2.27,1.89-4.62,3.67-6.94,5.5-.29-.32-.59-.64-.88-.95Z"/>
        <path class="cls-6" d="m180.77,186.13c-1.77-.74-4.33,1-5.55-1.73,3.11-1.46,6.69.93,9.6-1.37.99.33,1.85.97,1.8,2.02-.05,1.11-1.14.88-1.91.92-1.31.06-2.62.11-3.94.17Z"/>
        <path class="cls-22" d="m86.19,156.25c-2.75,2.82-4.43,7.01-10.32,8.15,4.04-3.52,5.92-7.39,10.32-8.15Z"/>
        <path class="cls-9" d="m143.85,192.04c2.33.05,3.69-3.48,6.74-1.53-1.66,1.25-3.27,2.45-4.87,3.65-1.87.18-2.37,2.98-4.7,2.65-.4-2.59,2.28-3.03,2.84-4.77Z"/>
        <path class="cls-6" d="m126.1,210.49c3.34-3.76,5.77-6.54,9.23-8.23-1.77,3.47-3.74,6.73-9.23,8.23Z"/>
        <path class="cls-26" d="m89.95,126.93c2.65.02,4.4,1.18,4.92,3.89-2.11-.71-4.17-1.47-4.92-3.89Z"/>
        <path class="cls-35" d="m115.68,153.07c-.92-.73-1.83-1.45-2.75-2.18-.33-.99-.65-1.99-.98-2.98,2.79.6,4.05,2.31,3.73,5.16Z"/>
        <path class="cls-12" d="m104.77,139.83c3.77-1.87,3.98.54,3.93,3.26-1.31-1.09-2.62-2.18-3.93-3.26Z"/>
        <path class="cls-17" d="m44.78,173.01c-1.95-2.47-.48-5.37-1-8.02,2.09,2.45.6,5.36,1,8.02Z"/>
        <path class="cls-41" d="m201.65,151.05c2.34.28,4.89-1,7,.96-2.28.07-4.65-.47-6.74.95-.09-.64-.18-1.27-.27-1.91Z"/>
        <path class="cls-2" d="m99.95,133.93c3.54.51,3.66.65,2.77,3.08-1.22-.76-2.46-1.51-2.77-3.08Z"/>
        <path class="cls-37" d="m83.78,120.94c1.09-1.06,2.44-1.99,1.95-3.85,1.61.99.89,2.62,1.1,4-.32.34-.64.67-.96,1.01-.42-.88-1.24-1.06-2.1-1.15Z"/>
        <path class="cls-7" d="m97.86,211.96c.23-2.36-.9-4.88.89-7.04-.27,2.35.87,4.88-.89,7.04Z"/>
        <path class="cls-40" d="m170.71,220.89c.47-2.3-.85-4.86,1.01-6.95-.38,2.31,1.03,4.88-1.01,6.95Z"/>
        <path class="cls-1" d="m123.75,179.89c1.82-1.67,4.03-.66,6.05-.88-1.81,1.71-4.02.68-6.05.88Z"/>
        <path class="cls-39" d="m49.76,175.01c-.62.01-1.24.03-1.87.04-.29-.23-.4-.47-.33-.73.07-.26.15-.39.24-.39,1.01-1.24,2.02-1.22,3.01.02-.35.35-.71.71-1.06,1.06Z"/>
        <path class="cls-16" d="m47.81,173.93c.03.37.05.74.08,1.12-1.1,1.5-2.07.25-3.08-.14.01-.34.02-.67.03-1.01.99,0,1.98.02,2.96.03Z"/>
        <path class="cls-34" d="m75.79,117.07c1.24-.73,2.53-1.27,4.02-.99-1.21.86-2.21,2.57-4.02.99Z"/>
        <path class="cls-37" d="m28.76,156.99c-1.38-1.68-1.4-3.36.03-5.02-.01,1.67-.02,3.35-.03,5.02Z"/>
        <path class="cls-20" d="m88.82,226.95c.18-1.71-.62-3.59.91-5.05-.13,1.71.68,3.6-.91,5.05Z"/>
        <path class="cls-10" d="m177.8,207.96c0-1.68.01-3.35.02-5.03,1.36,1.68,1.4,3.36-.02,5.03Z"/>
        <path class="cls-29" d="m88.03,224.59c-3.54,1.26-10.3-1.25-11.09-3.6-.14-.42-.09-1.06.15-1.41.71-1.04,1.42-.33,2.01.2,2.45,2.22,5.61,3.16,8.93,4.81Z"/>
        <path class="cls-43" d="m73.47,213.66c-1,.48-1.56.75-2.13,1.01-.75.34-1.15.01-1.52-.66-1.37-2.54-2.81-5.05-4.19-7.59-.26-.47-.89-1.12.19-1.38.45-.11,1.22-.13,1.4.12,1.86,2.62,2.52,6.01,6.25,8.5Z"/>
        <path class="cls-22" d="m64.99,196c-.33.7-.51,2.67-1.56.86-1.85-3.2-1.46-7-.21-10.16.71-1.81,1.44.28,1.76,1.22.51,2.69.5,5.39.01,8.08Z"/>
        <path class="cls-36" d="m64.99,196c0-2.69,0-5.39-.01-8.08,1.26,2.69,1.3,5.39.01,8.08Z"/>
        <path class="cls-40" d="m50.85,181.98c0-1.67,0-3.35-.01-5.02,1.44,1.67,1.44,3.34.01,5.02Z"/>
        <path class="cls-44" d="m64.79,227.96c-1.57-1.45-.81-3.31-.91-5.02,1.53,1.45.74,3.33.91,5.02Z"/>
        <path class="cls-8" d="m202.77,123.14c-2.19,2.79-4.56,5.36-7.87,6.86-1.58-3.46-3.19-6.91-3.17-10.83,1.39-.69,2.17-2.43,4.01-2.37,3.74.56,5.6,3.21,7.02,6.34Z"/>
        <path class="cls-8" d="m194.93,102c-1.89,2.52-4.06,4.72-7.02,6.01-1.8-3.39-2.62-7.07-3.19-10.83.32-1.71,1.39-2.58,3.08-2.77,3.53,1.44,6.41,3.5,7.12,7.59Z"/>
        <path class="cls-24" d="m120.71,129.93c-.41,3.2,1.08,5.12,4.06,6.04.24.21.32.42.24.62-.08.21-.16.31-.24.31-1.95,1.68-3.89,3.36-5.84,5.04-.91-2.01-2.01-3.96-2.67-6.05-1.25-3.9,1.75-4.88,4.45-5.98Z"/>
        <path class="cls-33" d="m187.75,94.81c-1.01.79-2.02,1.58-3.02,2.36-1.24-1.19-1.28-2.68-1.04-4.24,2.45.36,4.65-1.54,7.15-.8.11,2.2-1.7,2.2-3.09,2.68Z"/>
        <path class="cls-23" d="m203.41,44.15c-2.34-.86-3.9-2.2-4.44-4.39-.16-.67,1-.87,1.55-.64,2.08.86,3.72,2.07,2.88,5.03Z"/>
        <path class="cls-27" d="m129.7,120.94c-.17,2.48.98,6.28-3.98,3.98,1.02-1.63,2.34-2.97,3.98-3.98Z"/>
        <path class="cls-3" d="m67.83,88.07c-.13.3-.25.61-.4.89-.65,1.24,2.5,3.23-.54,3.83-2.82.55-3.08-1.66-3.08-3.78.61-1.33,1.66-1.97,3.1-2,.31.35.62.7.92,1.06Z"/>
        <path class="cls-21" d="m66.9,87.01c-1.03.67-2.06,1.33-3.1,2-1.32-.05-1.98-.73-1.97-2.06,1.67,2.12,3.4-2.4,5.06.05Z"/>
        <path class="cls-28" d="m77.79,86.95c-2.32,0-4.65,0-6.97-.01,2.33-1.44,4.65-1.45,6.97.01Z"/>
        <path class="cls-32" d="m187.75,94.81c.4-1.62,2.36-1.44,3.09-2.68.35.28.71.56,1.06.84.51,2.05,2.39,2.97,3.67,4.36,1.78,1.93,1.54,3.39-.65,4.68-2.39-2.4-4.79-4.79-7.18-7.19Z"/>
        <path class="cls-18" d="m202.77,123.14c-2.34-2.11-4.68-4.23-7.02-6.34,0-.16-.05-.39.03-.49,3.23-3.58,4.61.23,6.39,1.74,1.6,1.36,4.33,2.95.6,5.09Z"/>
        <path class="cls-9" d="m223.87,151.91c.88.22,1.98.17,1.66.98-1.03,2.67-2.05,5.39-3.97,7.59-.1.11-.94-.15-1.12-.44-.75-1.19.23-2.17.78-2.96,1.13-1.62.91-4.01,2.65-5.17Z"/>
        <path class="cls-27" d="m124.78,136.91c0-.31,0-.63,0-.94,3.17-1.07,5.5-2.73,7.21-6,2.62-5.02,7.78-5.45,12.15-2.31,1.77,1.27,3.95,4.83,5.67,3.02,1.59-1.68-2.61-2.8-3.57-4.7-.35-.69-.89-1.28-.96-2.36,2.94,1.35,5.74,2.83,7.46,5.77.74,1.27,1.4,2.59,2.14,3.87.41.7.9,1.59,1.86.97.43-.28.75-1.11.71-1.65-.06-.89-1.04-1.98.53-2.37,1.35-.34,2.28.5,2.59,1.73.35,1.36.86,2.49,2.18,3.12,1.54,1.1,3.5-.16,5.05.9,6.3-.59,2.64,3.68,2.94,6.02-1.85,1.27-4.14-.21-6,.96-2.07.31-3.83-.78-5.68-1.35-1.29-.39-2.96-1.15-3.78-.39-4.12,3.86-7.15.36-10.49-1.23-2.37-.97-.83-3.52-2.02-4.97h0c-2.33-.87-4.67-.76-7.01-.05-3.87-.52-7,3.08-10.98,1.96Z"/>
        <path class="cls-27" d="m170.83,122.87c2.38,1.42,3.39,3.91,4.77,6.12-3.95-.09-7.91-2.12-11.84.08-2.39-.32-1.34-1.84-1.09-3.09.76-2.62,1.33-5.59,5.03-2.66,1.19.94,2.13-.03,3.13-.46Z"/>
        <path class="cls-3" d="m180.07,165.42c-5.96-4.11-7.17-10.86-9.39-17.08,5.19,4.5,7.43,10.67,9.39,17.08Z"/>
        <path class="cls-22" d="m156.32,187.08c3.39-2.64,7.29-2.69,11.19-2.76-3.3,3.12-7.25,2.92-11.19,2.76Z"/>
        <path class="cls-25" d="m135.75,134.95c2.35-1.46,4.69-1.57,7.01.05-2.34-.02-4.67-.03-7.01-.05Z"/>
        <path class="cls-25" d="m164.73,142.92c1.78-1.72,4.01-.6,6-.96-1.75,1.88-3.99.7-6,.96Z"/>
        <path class="cls-13" d="m142.76,134.99c1.62,1.27.7,3.57,2.02,4.97-3.25-.61-1.56-3.23-2.02-4.97Z"/>
        <path class="cls-5" d="m162.67,125.99c.13,1.11-.06,2.34,1.09,3.09-.45.53-1.14.85-1.54.26-.76-1.15-.64-2.36.45-3.34Z"/>
        <path class="cls-14" d="m167.8,135.94c-1.71-.17-3.6.69-5.05-.9,1.71.17,3.6-.7,5.05.9Z"/>
      </g>
    </g>
  </g>
</svg>